<?xml version="1.0" standalone="no"?>
<!DOCTYPE svg PUBLIC "-//W3C//DTD SVG 20010904//EN"
 "http://www.w3.org/TR/2001/REC-SVG-20010904/DTD/svg10.dtd">
<svg version="1.0" xmlns="http://www.w3.org/2000/svg"
 width="1280.000000pt" height="853.000000pt" viewBox="0 0 1280.000000 853.000000"
 preserveAspectRatio="xMidYMid meet">
<metadata>
Created by potrace 1.15, written by Peter Selinger 2001-2017
</metadata>
<g transform="translate(0.000000,853.000000) scale(0.100000,-0.100000)"
fill="#000000" stroke="none">
<path d="M5810 7674 c-93 -25 -161 -65 -236 -139 -115 -113 -160 -234 -152
-400 l5 -92 -41 23 c-69 38 -215 82 -318 94 -222 28 -473 -43 -650 -182 -162
-128 -278 -307 -328 -505 -8 -33 -16 -43 -31 -43 -47 0 -118 -53 -154 -115
-10 -17 -16 -17 -80 -4 -99 19 -253 15 -346 -10 -220 -57 -402 -207 -507 -417
-29 -57 -34 -62 -89 -83 -272 -104 -489 -375 -543 -679 l-13 -71 -28 15 c-46
23 -135 18 -184 -11 l-42 -24 -22 29 c-12 16 -36 37 -54 46 -17 10 -37 24 -43
32 -13 18 -44 9 -44 -13 0 -8 -6 -15 -14 -15 -21 0 -73 -64 -81 -99 -7 -31 21
-111 44 -125 20 -13 12 -27 -8 -16 -70 37 -164 -40 -146 -121 13 -59 105 -101
153 -70 9 5 22 0 37 -15 13 -13 29 -24 34 -24 5 0 9 -12 8 -26 -1 -15 5 -29
13 -34 8 -4 29 -15 47 -24 41 -21 56 -20 79 5 l18 21 7 -26 c14 -51 2 -66 -55
-66 -56 -1 -118 -19 -145 -44 -10 -9 -26 -13 -39 -9 -27 7 -69 -19 -84 -52 -8
-18 -7 -31 6 -56 9 -17 16 -51 16 -73 0 -82 39 -161 100 -201 16 -11 30 -27
30 -36 0 -22 26 -43 45 -36 12 5 15 -13 17 -121 3 -105 6 -127 18 -127 12 0
16 24 20 140 4 118 6 96 10 -145 l5 -285 24 -3 c48 -7 51 10 51 310 0 224 3
278 13 278 23 0 97 70 119 114 14 27 22 61 22 98 1 55 5 66 19 52 18 -18 122
-53 131 -44 6 6 18 10 28 10 17 0 18 -16 18 -249 0 -222 2 -251 17 -269 26
-30 71 -33 97 -6 14 13 16 53 16 286 0 236 2 269 15 258 8 -6 18 -9 23 -6 5 3
27 -8 47 -24 21 -17 62 -44 92 -61 l53 -30 0 -250 0 -250 25 -24 c29 -30 55
-32 86 -6 24 19 24 21 27 245 2 125 7 226 12 226 5 0 31 -4 57 -9 26 -5 65
-12 86 -16 l37 -6 0 -585 0 -586 34 -34 c28 -28 42 -34 75 -34 23 0 53 8 68
17 53 35 53 36 53 662 l0 579 33 5 c17 2 34 1 35 -4 6 -15 30 -10 41 9 7 12
10 -35 11 -159 0 -163 1 -177 20 -194 17 -15 24 -16 45 -7 25 11 25 13 25 137
0 112 2 129 21 154 17 23 19 32 10 50 -7 11 -16 21 -21 21 -6 0 -10 11 -10 25
0 17 9 29 30 40 l30 16 0 -56 c0 -46 4 -60 25 -80 31 -32 59 -32 90 0 23 22
25 31 25 127 l1 103 74 78 75 79 0 -145 c0 -123 3 -148 18 -165 27 -32 71 -33
101 -1 18 20 20 20 46 3 14 -9 42 -49 62 -88 43 -86 107 -178 162 -231 38 -36
55 -65 30 -50 -36 23 -140 -39 -153 -91 -5 -19 -11 -24 -24 -19 -9 3 -38 11
-64 17 -118 28 -266 -56 -303 -171 -4 -14 -18 -44 -31 -68 -87 -164 -24 -362
142 -444 41 -20 64 -24 139 -24 78 0 97 4 140 27 58 31 114 87 143 143 12 22
21 32 22 23 0 -21 46 -58 72 -58 10 0 30 11 43 25 l25 24 0 256 c0 141 3 255
8 253 4 -1 39 -19 77 -37 39 -19 104 -45 145 -57 l75 -22 5 -865 c5 -859 5
-866 26 -894 44 -59 133 -63 185 -7 l24 26 5 860 c4 677 8 862 18 866 9 3 12
-78 12 -382 0 -373 1 -387 20 -406 29 -29 74 -26 99 6 17 21 21 41 21 98 0 68
1 72 30 88 22 13 30 24 30 46 0 29 -26 62 -48 62 -9 0 -12 63 -10 256 l3 255
73 25 c41 13 91 33 113 44 21 11 41 20 44 20 3 0 5 -29 5 -63 0 -73 17 -97 67
-97 53 0 63 23 63 144 l0 108 75 75 c41 42 75 80 75 84 0 5 32 9 71 9 56 0 82
5 120 25 51 25 57 23 38 -19 -10 -20 -9 -30 4 -49 15 -23 15 -26 -10 -48 -54
-50 -67 -131 -34 -205 20 -44 60 -81 98 -90 21 -6 23 -12 23 -64 0 -53 -2 -59
-32 -82 -29 -21 -38 -22 -70 -14 -64 16 -157 -26 -190 -87 -33 -63 -26 -147
19 -205 23 -30 25 -40 20 -91 -21 -202 90 -427 261 -528 34 -20 42 -30 38 -46
-8 -31 22 -84 54 -97 22 -9 38 -9 60 -2 l30 11 0 -294 c0 -281 1 -295 19 -305
27 -14 37 -13 55 6 14 13 16 57 16 330 0 203 4 314 10 314 7 0 10 -218 10
-635 0 -695 -1 -680 58 -704 37 -15 74 -6 104 26 l23 25 3 657 3 657 54 27
c31 15 58 27 60 27 3 0 5 -86 5 -190 0 -211 6 -238 59 -260 38 -16 78 -3 105
34 20 26 21 42 23 324 2 268 5 302 22 347 59 150 61 290 6 429 -17 44 -25 84
-26 141 l-2 79 67 35 c38 18 94 58 126 88 58 54 59 54 71 31 6 -13 25 -38 40
-56 l29 -33 0 -168 c0 -155 2 -170 21 -195 15 -19 17 -26 6 -26 -8 0 -21 -8
-30 -18 -53 -58 28 -137 83 -82 22 22 25 42 10 70 -8 16 -5 19 19 25 16 3 39
17 52 31 23 24 24 34 27 168 l3 142 47 17 c63 22 116 67 142 122 l22 45 59
-53 59 -52 -2 -252 c-1 -223 1 -254 16 -278 34 -52 103 -56 147 -9 23 25 24
31 27 225 2 109 7 199 11 199 5 0 24 -7 43 -15 31 -12 104 -31 191 -50 l27 -5
0 -683 c1 -720 1 -728 47 -779 68 -77 204 -67 260 19 17 25 18 75 23 741 l5
714 95 32 c105 35 208 87 286 146 36 27 55 36 65 29 29 -18 89 -10 114 16 22
21 25 33 25 91 0 61 4 73 40 130 43 69 77 140 104 219 9 28 32 68 51 90 l34
40 1 -218 0 -219 29 -29 c22 -21 39 -29 66 -29 27 0 44 8 66 29 l29 29 0 206
c0 113 2 206 5 206 2 0 21 -12 42 -26 27 -18 37 -31 35 -47 -4 -34 34 -70 69
-65 l29 5 0 -203 c0 -213 4 -231 47 -222 17 3 18 22 23 238 5 189 6 145 8
-220 l1 -455 -29 -29 c-17 -16 -35 -47 -42 -68 -6 -21 -16 -36 -22 -34 -105
45 -244 47 -336 4 -86 -39 -144 -98 -186 -186 -21 -42 -53 -109 -71 -147 -114
-238 -23 -505 211 -621 66 -32 87 -37 169 -42 142 -7 244 29 343 120 146 134
187 365 97 543 -11 22 -23 56 -27 76 -6 36 -6 36 34 42 22 3 57 3 79 0 32 -4
41 -1 54 17 11 15 13 29 7 44 -5 14 -3 31 6 46 7 14 13 50 14 81 0 77 -39 138
-109 171 l-51 23 0 442 c0 244 4 443 8 443 5 0 33 15 64 34 l56 33 60 -29 c45
-23 79 -31 139 -35 68 -5 81 -9 89 -27 5 -11 19 -22 31 -24 22 -3 23 -8 25
-125 3 -106 5 -122 20 -125 16 -3 18 10 21 135 1 76 4 13 5 -139 2 -263 3
-278 21 -288 25 -13 27 -13 45 6 14 13 16 54 16 295 l0 279 38 19 c82 42 124
123 122 234 -3 126 6 251 19 276 16 29 8 86 -16 115 -15 17 -15 19 -1 8 9 -8
29 -12 45 -10 24 3 29 8 33 43 4 33 10 42 38 54 29 13 39 30 32 56 -2 6 -6 38
-10 73 -5 42 -16 76 -35 105 l-28 42 30 -27 c16 -16 33 -28 37 -28 4 0 22 -16
40 -35 26 -27 41 -35 68 -35 41 0 88 38 88 70 0 12 6 28 14 36 16 16 30 19 21
5 -3 -5 -1 -12 4 -15 5 -4 12 -2 15 3 4 5 2 12 -3 16 -6 3 -9 23 -6 45 2 28
-1 40 -12 44 -24 10 -45 7 -62 -8 -14 -12 -72 -20 -118 -17 -7 1 -13 12 -13
25 0 33 -29 65 -67 72 -27 5 -37 1 -64 -25 -26 -27 -31 -37 -26 -66 l5 -33
-30 10 c-16 6 -54 8 -83 5 -29 -3 -55 -3 -58 -1 -3 3 2 18 10 34 19 39 0 80
-42 95 -53 17 -63 55 -15 55 62 0 93 77 49 121 -16 16 -30 20 -67 17 l-47 -3
-5 85 c-11 177 -119 295 -297 325 -51 8 -143 -9 -198 -38 -38 -20 -91 -24
-108 -8 -4 4 -3 19 2 34 7 19 6 28 -4 37 -17 14 -32 -7 -16 -23 24 -24 9 -29
-16 -5 -80 74 -199 84 -280 22 l-32 -25 -38 25 c-21 14 -51 30 -68 36 -23 8
-37 25 -58 70 -36 77 -89 111 -171 111 -57 0 -86 -10 -124 -44 l-23 -21 -95
50 c-53 27 -97 54 -99 59 -2 6 -20 63 -40 128 -175 557 -629 1011 -1196 1198
-214 70 -311 84 -584 84 -253 -1 -237 1 -521 -62 -17 -4 -26 5 -49 54 -37 76
-151 189 -227 226 -118 57 -253 72 -368 41z m-1320 -2219 c0 -8 -5 -15 -11
-15 -6 0 -9 -7 -5 -15 3 -8 0 -15 -7 -16 -9 0 -9 -2 1 -6 6 -2 12 -17 12 -31
0 -15 4 -42 9 -60 5 -17 6 -32 1 -32 -9 0 -20 35 -20 68 0 12 -4 22 -8 22 -11
0 -35 51 -27 58 3 3 5 -1 6 -9 0 -8 4 -3 10 9 5 13 7 28 3 33 -3 5 4 9 15 9
12 0 21 -7 21 -15z m-384 -771 l-14 -59 -1 57 c-1 37 3 58 12 61 18 6 18 5 3
-59z m-1996 24 l29 -21 -19 -25 c-11 -14 -20 -31 -20 -40 0 -12 -3 -12 -16 -1
-23 19 -33 50 -27 82 6 33 15 34 53 5z m4152 -1205 c15 -15 28 -30 28 -34 0
-4 -16 -10 -36 -13 -19 -4 -42 -10 -50 -13 -21 -8 -19 56 4 73 23 18 22 18 54
-13z m-1896 -32 c-15 -17 -15 -20 -1 -34 8 -9 15 -26 15 -39 -1 -20 -3 -19
-20 12 -27 49 -26 80 2 80 20 0 20 -1 4 -19z m1771 -33 c-2 -13 -4 -5 -4 17
-1 22 1 32 4 23 2 -10 2 -28 0 -40z"/>
<path d="M10595 6441 c-8 -15 3 -31 21 -31 9 0 14 7 12 17 -4 20 -24 28 -33
14z"/>
<path d="M9830 6259 c-97 -39 -114 -160 -31 -216 60 -40 126 -26 168 36 28 42
29 86 3 128 -29 49 -91 72 -140 52z"/>
<path d="M10763 6124 c-8 -22 10 -49 32 -49 10 0 22 7 28 16 15 24 1 49 -28
49 -15 0 -28 -7 -32 -16z"/>
<path d="M9646 5875 c25 -19 34 -19 34 0 0 10 -10 15 -27 15 -26 0 -26 -1 -7
-15z"/>
<path d="M10557 5844 c-8 -8 1 -24 14 -24 5 0 9 7 9 15 0 15 -12 20 -23 9z"/>
<path d="M10730 5830 c0 -15 5 -20 18 -18 9 2 17 10 17 18 0 8 -8 16 -17 18
-13 2 -18 -3 -18 -18z"/>
<path d="M10796 5843 c-11 -11 -6 -23 9 -23 8 0 15 4 15 9 0 13 -16 22 -24 14z"/>
<path d="M9648 5828 c-9 -7 -8 -8 5 -4 12 4 26 -3 41 -19 l23 -25 1 29 c1 26
-3 30 -28 29 -16 -1 -35 -5 -42 -10z"/>
<path d="M10677 5814 c-8 -8 1 -24 14 -24 5 0 9 7 9 15 0 15 -12 20 -23 9z"/>
<path d="M9787 5789 c7 -7 15 -10 18 -7 3 3 -2 9 -12 12 -14 6 -15 5 -6 -5z"/>
<path d="M10560 5789 c0 -6 5 -7 10 -4 6 3 10 -1 10 -9 0 -10 9 -16 21 -16 32
0 20 34 -14 37 -15 1 -27 -3 -27 -8z"/>
<path d="M10716 5779 c-14 -11 -26 -27 -26 -35 0 -10 -6 -13 -17 -10 -52 15
-73 16 -110 3 -36 -12 -42 -12 -63 5 -47 38 -120 15 -146 -48 -12 -29 -12 -39
0 -68 16 -39 51 -66 83 -66 13 0 23 -6 23 -14 0 -21 47 -74 81 -91 40 -21 108
-19 147 5 48 29 72 75 72 139 0 51 1 53 24 49 37 -7 45 3 50 65 2 32 1 56 -2
53 -2 -3 -16 4 -30 14 -32 25 -53 25 -86 -1z"/>
<path d="M9740 5781 c0 -5 9 -11 20 -14 24 -6 27 8 4 17 -21 8 -24 8 -24 -3z"/>
<path d="M10656 5783 c-11 -11 -6 -23 9 -23 8 0 15 4 15 9 0 13 -16 22 -24 14z"/>
<path d="M10770 5625 c0 -9 5 -15 11 -13 6 2 11 8 11 13 0 5 -5 11 -11 13 -6
2 -11 -4 -11 -13z"/>
<path d="M10814 5619 c-8 -14 11 -33 25 -25 6 4 11 14 11 22 0 16 -26 19 -36
3z"/>
<path d="M10920 5420 c0 -5 5 -10 10 -10 6 0 10 5 10 10 0 6 -4 10 -10 10 -5
0 -10 -4 -10 -10z"/>
<path d="M2059 5399 c-58 -21 -60 -105 -4 -131 82 -37 145 85 65 127 -16 8
-30 15 -32 14 -2 0 -15 -5 -29 -10z"/>
<path d="M10600 5270 c-42 -42 -13 -112 47 -112 31 0 63 33 63 67 0 26 -43 65
-71 65 -11 0 -28 -9 -39 -20z"/>
<path d="M11027 5243 c-14 -13 -6 -33 13 -33 13 0 20 7 20 20 0 19 -20 27 -33
13z"/>
<path d="M1603 5215 c-111 -48 -75 -215 47 -215 68 0 110 45 110 118 0 47 -22
80 -66 98 -41 17 -50 17 -91 -1z"/>
<path d="M1958 5173 c7 -3 16 -2 19 1 4 3 -2 6 -13 5 -11 0 -14 -3 -6 -6z"/>
<path d="M1970 5140 c0 -5 7 -10 15 -10 8 0 15 5 15 10 0 6 -7 10 -15 10 -8 0
-15 -4 -15 -10z"/>
<path d="M2040 5090 c0 -5 5 -10 10 -10 6 0 10 5 10 10 0 6 -4 10 -10 10 -5 0
-10 -4 -10 -10z"/>
<path d="M11000 5060 c0 -5 4 -10 9 -10 6 0 13 5 16 10 3 6 -1 10 -9 10 -9 0
-16 -4 -16 -10z"/>
<path d="M10966 5044 c-8 -22 -4 -25 11 -9 7 8 9 16 4 19 -5 3 -12 -1 -15 -10z"/>
<path d="M10915 5030 c3 -5 10 -10 16 -10 5 0 9 5 9 10 0 6 -7 10 -16 10 -8 0
-12 -4 -9 -10z"/>
<path d="M1780 4980 c0 -5 5 -10 10 -10 6 0 10 5 10 10 0 6 -4 10 -10 10 -5 0
-10 -4 -10 -10z"/>
<path d="M10919 4716 c-9 -20 -9 -29 1 -41 28 -34 87 5 64 43 -18 28 -52 27
-65 -2z"/>
<path d="M1547 4703 c-23 -6 -49 -57 -40 -80 12 -34 36 -53 68 -53 39 0 65 26
65 66 0 35 -8 47 -37 63 -23 11 -26 12 -56 4z"/>
<path d="M10785 4623 c-13 -12 -16 -27 -12 -58 4 -23 2 -46 -2 -51 -16 -17
-32 -116 -21 -129 11 -13 91 -31 125 -27 52 5 95 53 95 104 0 32 -34 85 -60
93 -15 5 -19 12 -15 26 13 40 -3 59 -50 59 -27 0 -50 -6 -60 -17z"/>
<path d="M11002 4618 c-13 -13 -16 -47 -4 -64 23 -33 82 -12 82 30 0 28 -18
46 -45 46 -12 0 -26 -5 -33 -12z"/>
<path d="M1767 4556 c-7 -17 18 -40 33 -31 5 3 10 15 10 26 0 23 -35 27 -43 5z"/>
<path d="M11037 4343 c-4 -3 -7 -17 -7 -30 0 -16 6 -23 20 -23 21 0 40 27 33
48 -5 13 -35 17 -46 5z"/>
<path d="M1534 4285 c-4 -9 -2 -21 4 -27 15 -15 44 -1 40 19 -4 23 -36 29 -44
8z"/>
<path d="M1743 4264 c-8 -21 13 -42 28 -27 13 13 5 43 -11 43 -6 0 -13 -7 -17
-16z"/>
<path d="M11032 4261 c-20 -12 -20 -65 0 -69 24 -5 44 46 26 64 -7 8 -19 10
-26 5z"/>
<path d="M2330 4234 c-11 -12 -10 -18 3 -32 16 -15 18 -15 34 0 13 14 14 20 3
32 -7 9 -16 16 -20 16 -4 0 -13 -7 -20 -16z"/>
<path d="M10788 4198 c-8 -21 2 -38 22 -38 19 0 30 17 23 38 -3 6 -13 12 -23
12 -10 0 -20 -6 -22 -12z"/>
<path d="M10732 4138 c2 -15 10 -23 23 -23 30 0 27 39 -3 43 -20 3 -23 0 -20
-20z"/>
<path d="M3916 4044 c-19 -19 -20 -25 -3 -48 21 -29 61 -17 65 18 5 43 -32 61
-62 30z"/>
<path d="M4193 3774 c-3 -8 -1 -20 5 -26 16 -16 42 -2 42 22 0 24 -38 28 -47
4z"/>
<path d="M4042 3748 c-30 -30 3 -77 40 -57 30 16 16 69 -17 69 -6 0 -16 -5
-23 -12z"/>
<path d="M3756 3728 c-24 -34 -20 -73 10 -97 15 -12 34 -21 44 -21 10 0 29 9
44 21 32 25 36 77 8 102 -28 25 -87 22 -106 -5z"/>
<path d="M4157 3733 c-15 -14 -7 -43 12 -43 26 0 36 17 21 35 -14 16 -23 19
-33 8z"/>
<path d="M5750 3640 c-11 -11 -20 -29 -20 -40 0 -26 34 -60 60 -60 27 0 60 35
60 63 0 51 -63 74 -100 37z"/>
<path d="M4600 3405 c0 -9 5 -15 11 -13 6 2 11 8 11 13 0 5 -5 11 -11 13 -6 2
-11 -4 -11 -13z"/>
<path d="M9688 3109 c-22 -12 -23 -42 -2 -60 31 -26 70 25 44 56 -14 17 -19
18 -42 4z"/>
<path d="M9451 3046 c-16 -19 -10 -66 10 -79 26 -16 68 0 75 30 4 14 2 33 -3
42 -13 21 -66 26 -82 7z"/>
<path d="M9613 3014 c-8 -22 10 -49 32 -49 10 0 22 7 28 16 15 24 1 49 -28 49
-15 0 -28 -7 -32 -16z"/>
<path d="M10067 2994 c-9 -10 4 -34 19 -34 8 0 14 9 14 20 0 19 -19 27 -33 14z"/>
<path d="M5686 2954 c-22 -21 -20 -50 4 -74 24 -24 38 -25 68 -4 24 16 28 44
12 75 -13 23 -62 26 -84 3z"/>
<path d="M7060 2880 c-27 -27 -25 -56 5 -85 27 -28 37 -30 68 -14 29 16 37 28
37 60 0 54 -70 79 -110 39z"/>
<path d="M9914 2646 c-3 -8 -4 -23 -2 -33 5 -25 61 -25 66 0 7 37 -51 67 -64
33z"/>
<path d="M10035 2630 c-22 -25 -13 -68 17 -79 54 -20 94 27 64 74 -20 30 -56
33 -81 5z"/>
<path d="M10260 2555 c0 -10 7 -15 18 -13 21 4 19 22 -2 26 -10 2 -16 -3 -16
-13z"/>
</g>
</svg>
