<?xml version="1.0" encoding="utf-8"?>
<!-- Svg Vector Icons : http://www.onlinewebfonts.com/icon -->
<!DOCTYPE svg PUBLIC "-//W3C//DTD SVG 1.1//EN" "http://www.w3.org/Graphics/SVG/1.1/DTD/svg11.dtd">
<svg version="1.1" xmlns="http://www.w3.org/2000/svg" xmlns:xlink="http://www.w3.org/1999/xlink" x="0px" y="0px" viewBox="0 0 1000 1000" enable-background="new 0 0 1000 1000" xml:space="preserve">
<metadata> Svg Vector Icons : http://www.onlinewebfonts.com/icon </metadata>
<g><path d="M739.2,468.6C711.3,591.7,605,719.5,501,719.5c-103.4,0-209.7-127.4-238.2-250.4c-22-3.9-38.1-14.6-38.1-40.7l0-104.9c0-25.9,16.1-34.7,39.1-37.3l0.5-1.5h-1c0,0-17.5-65.6-5.9-79.4c11.3-13.6,38.2-17.5,44.1-32.8c5.9-15.7,15.2-133.8,36.3-137.7c21.1-3.9,125,23,155.4,26.9c30.8,4,147.8,9.9,165.1,21.6c17.2,11.3,29.1,54,44.1,69.7c15.2,15.7,44.3,1.9,52.1,19.6c7.2,17.2-15.8,112.2-15.8,112.2h-1l0.6,1.5c21.5,3,37.3,11.8,37.3,37.3v104.9C775.5,453.5,760.3,464.7,739.2,468.6z M562.3,965.5v-60.3c0-34.1-27.4-93-61.3-93c-33.8,0-61.3,59-61.3,93v60.3H10c0,0,151.4-246,184.2-246h245.5h30.4c-16.7,0-30.4,13.9-30.4,31c0,17.2,13.8,30.9,30.4,30.9h61.7c16.6,0,30.3-13.6,30.3-30.9c0-17.1-13.8-31-30.3-31h30.3h245.6c30.8,0,182.2,246,182.2,246H562.3z"/></g>
</svg>