<?xml version="1.0" encoding="iso-8859-1"?>
<!-- Generator: Adobe Illustrator 19.1.0, SVG Export Plug-In . SVG Version: 6.00 Build 0)  -->
<!DOCTYPE svg PUBLIC "-//W3C//DTD SVG 1.1//EN" "http://www.w3.org/Graphics/SVG/1.1/DTD/svg11.dtd">
<svg version="1.1" id="Layer_1" xmlns="http://www.w3.org/2000/svg" xmlns:xlink="http://www.w3.org/1999/xlink" x="0px" y="0px"
	 width="512px" height="512px" viewBox="4 -76 512 512" style="enable-background:new 4 -76 512 512;" xml:space="preserve">
<g id="shop">
	<g>
		
			<linearGradient id="SVGID_1_" gradientUnits="userSpaceOnUse" x1="260.666" y1="251" x2="260.666" y2="-91" gradientTransform="matrix(1 0 0 -1 0 360)">
			<stop  offset="0" style="stop-color:#14B1E7"/>
			<stop  offset="1" style="stop-color:#1C75BC"/>
		</linearGradient>
		<path style="fill:url(#SVGID_1_);" d="M412.53,64.411l-38.389-5.214c-1.094-28.825-11.391-53.776-28.022-67.426
			c-11.355-9.319-24.714-12.78-38.642-10.012c-9.983,1.985-19.756,7.224-28.581,15.14c-3.012-3.429-6.267-6.495-9.75-9.148
			c-12.639-9.625-27.357-13.114-42.561-10.089c-17.689,3.518-34.838,15.887-48.285,34.83c-12.447,17.532-21.235,39.953-24.95,63.468
			l-44.492,5.38l-3.344,3.772v239.199l3.1,3.734l227.557,42.689l1.222-1.014l0.311,0.236l75.326-20.814l2.788-3.663V68.177
			L412.53,64.411z M278.186,8.316c9.063,13.089,14.981,30.562,16.882,50.505l-42.909,5.189
			C256.363,41.732,265.852,22.021,278.186,8.316z M228.068-14.885c13.008-2.588,25.619,0.416,36.474,8.682
			c3.192,2.431,6.175,5.258,8.934,8.435c-2.773,2.982-5.433,6.228-7.936,9.754c-10.43,14.691-17.891,33.344-21.272,52.978
			l-83.061,10.045C169.141,28.736,196.685-8.645,228.068-14.885z M332.892,362.387l-219.777-41.23V88.479l219.777-26.578V362.387z
			 M337.204,54.18l-0.193,0.168l-0.595-0.528l-33.802,4.088c-2.101-21.714-8.763-40.796-18.996-55.064
			c7.745-7.054,16.358-11.845,25.341-13.631c11.617-2.312,22.801,0.605,32.337,8.433c14.723,12.084,23.937,34.412,25.193,60.513
			L337.204,54.18z M408.218,342.587l-67.547,18.665V62.321l67.547,9.174V342.587z"/>
		
			<linearGradient id="SVGID_2_" gradientUnits="userSpaceOnUse" x1="215.8613" y1="251" x2="215.8613" y2="-91" gradientTransform="matrix(1 0 0 -1 0 360)">
			<stop  offset="0" style="stop-color:#14B1E7"/>
			<stop  offset="1" style="stop-color:#1C75BC"/>
		</linearGradient>
		<path style="fill:url(#SVGID_2_);" d="M194.676,243.911l8.693,3.695l1.748-9.283c0.265-1.408,2.247-14.191-9.646-29.326
			l-0.087-0.111l-0.091-0.107l-0.16-0.189c-3.051-4.176-4.83-9.631-5.015-15.389c-0.446-13.88,8.604-27.335,20.175-29.993
			l0.687-0.158c1.436-0.33,2.883-0.497,4.301-0.497c5.106,0,9.932,2.178,13.589,6.133c4.007,4.334,6.336,10.513,6.557,17.399
			c0.229,7.117-1.882,14.172-5.947,19.889c-0.035,0.042-0.076,0.09-0.123,0.145c-12.296,14.449-10.27,31.521-10.177,32.241
			l1.212,9.458l8.949-3.291c23.368-8.594,39.181-33.567,38.455-60.728c-0.391-14.656-5.623-28.11-14.731-37.882
			c-9.053-9.713-21.074-15.062-33.849-15.064h-0.004c-3.315,0-6.664,0.37-9.954,1.1c-0.397,0.088-0.805,0.19-1.241,0.311
			c-0.198,0.055-0.66,0.191-1.073,0.313l-0.488,0.145c-0.02,0.006-0.04,0.012-0.06,0.018l-0.065,0.017
			c-0.415,0.106-1.252,0.322-1.534,0.4c-0.43,0.119-0.827,0.241-1.214,0.371c-23.588,7.885-40.633,34.463-39.639,61.819
			C164.735,217.25,176.799,236.313,194.676,243.911z M206,140.733c0.274-0.092,0.552-0.176,0.829-0.252
			c0.339-0.094,1.564-0.405,1.6-0.416c0,0,1.274-0.382,1.619-0.478c0.283-0.079,0.567-0.151,0.854-0.215
			c2.796-0.62,5.574-0.92,8.311-0.92c21.517,0.002,40.264,18.536,40.984,45.549c0.651,24.338-13.606,46.083-33.481,53.392
			c0,0-1.832-14.293,8.427-26.349c0.203-0.239,0.338-0.402,0.396-0.481c5.065-7.035,7.767-15.874,7.482-24.723
			c-0.589-18.323-13.025-30.888-27.742-30.888c-1.967,0-3.976,0.225-6.002,0.69l-0.687,0.158
			c-15.502,3.562-26.626,20.319-26.069,37.644c0.237,7.38,2.571,14.397,6.649,19.865l0.324,0.383
			c10.105,12.86,8.153,23.223,8.153,23.223c-15.42-6.554-25.436-23.169-26.112-41.846C170.689,171.738,185.117,147.713,206,140.733z
			"/>
	</g>
</g>
<g id="Layer_1_1_">
</g>
</svg>
