<?xml version="1.0" encoding="iso-8859-1"?>
<!-- Generator: Adobe Illustrator 19.1.0, SVG Export Plug-In . SVG Version: 6.00 Build 0)  -->
<!DOCTYPE svg PUBLIC "-//W3C//DTD SVG 1.1//EN" "http://www.w3.org/Graphics/SVG/1.1/DTD/svg11.dtd">
<svg version="1.1" xmlns="http://www.w3.org/2000/svg" xmlns:xlink="http://www.w3.org/1999/xlink" x="0px" y="0px"
	 viewBox="0 0 512 512" style="enable-background:new 0 0 512 512;" xml:space="preserve">
<g id="Artboard">
</g>
<g id="Continuous_Innovation">
	<g>
		<defs>
			<rect id="SVGID_1_" x="-976.333" y="-166" width="792" height="612"/>
		</defs>
		<clipPath id="SVGID_2_">
			<use xlink:href="#SVGID_1_"  style="overflow:visible;"/>
		</clipPath>
		<g style="opacity:0.65;clip-path:url(#SVGID_2_);">
			<circle style="fill:#FFFFFF;" cx="123.691" cy="447.851" r="1.579"/>
			<circle style="fill:#FFFFFF;" cx="86.927" cy="373.107" r="1.579"/>
			<circle style="fill:#EAEAEA;" cx="81.132" cy="414.447" r="1.956"/>
			<circle style="fill:#EAEAEA;" cx="43.474" cy="415.509" r="1.304"/>
			<circle style="fill:#EAEAEA;" cx="59.002" cy="456.508" r="2.934"/>
			
				<line style="fill:none;stroke:#EAEAEA;stroke-width:0.6521;stroke-miterlimit:10;" x1="-21.764" y1="380.223" x2="44.079" y2="415.751"/>
			
				<line style="fill:none;stroke:#EAEAEA;stroke-width:0.6521;stroke-miterlimit:10;" x1="44.079" y1="415.751" x2="14.043" y2="424.083"/>
			
				<line style="fill:none;stroke:#EAEAEA;stroke-width:0.6521;stroke-miterlimit:10;" x1="14.043" y1="424.083" x2="-22.612" y2="380.586"/>
			
				<line style="fill:none;stroke:#EAEAEA;stroke-width:0.6521;stroke-miterlimit:10;" x1="86.854" y1="373.888" x2="80.527" y2="414.205"/>
			
				<line style="fill:none;stroke:#EAEAEA;stroke-width:0.6521;stroke-miterlimit:10;" x1="81.737" y1="414.69" x2="44.079" y2="415.751"/>
			
				<line style="fill:none;stroke:#EAEAEA;stroke-width:0.6521;stroke-miterlimit:10;" x1="44.079" y1="415.751" x2="86.249" y2="373.646"/>
			
				<line style="fill:none;stroke:#EAEAEA;stroke-width:0.6521;stroke-miterlimit:10;" x1="86.491" y1="373.04" x2="123.485" y2="448.989"/>
			
				<line style="fill:none;stroke:#EAEAEA;stroke-width:0.6521;stroke-miterlimit:10;" x1="44.199" y1="417.204" x2="71.531" y2="461.179"/>
			
				<line style="fill:none;stroke:#EAEAEA;stroke-width:0.6521;stroke-miterlimit:10;" x1="43.836" y1="416.356" x2="123.971" y2="447.778"/>
			
				<line style="fill:none;stroke:#EAEAEA;stroke-width:0.6521;stroke-miterlimit:10;" x1="81.252" y1="415.901" x2="69.475" y2="457.545"/>
			
				<line style="fill:none;stroke:#EAEAEA;stroke-width:0.6521;stroke-miterlimit:10;" x1="81.857" y1="416.143" x2="121.646" y2="479.864"/>
			
				<line style="fill:none;stroke:#EAEAEA;stroke-width:0.6521;stroke-miterlimit:10;" x1="123.728" y1="448.384" x2="70.928" y2="457.425"/>
			
				<line style="fill:none;stroke:#EAEAEA;stroke-width:0.6521;stroke-miterlimit:10;" x1="-5.036" y1="356.019" x2="15.011" y2="425.174"/>
		</g>
	</g>
</g>
<g id="Scalable_Platform_1_" style="display:none;">
	<g style="display:inline;">
		<path style="fill:none;stroke:#414141;stroke-width:7.6089;stroke-miterlimit:10;" d="M407.957,142.777L298.418,92.772
			c-2.997-1.368-6.524-1.368-9.52,0l-109.539,50.006c-7.845,3.581-7.845,13.803,0,17.384l109.539,50.006
			c2.997,1.368,6.524,1.368,9.52,0l109.539-50.006C415.802,156.58,415.802,146.359,407.957,142.777z M400.287,200.15l7.808,3.564
			c7.788,3.554,7.788,13.7,0.001,17.255l-109.714,50.085c-2.974,1.358-6.475,1.358-9.449,0l-109.714-50.086
			c-7.787-3.555-7.786-13.701,0.001-17.255l7.808-3.564l106.63,48.674L400.287,200.15z M400.287,261.021L400.287,261.021
			c11.005,5.022,11.005,19.36,0.002,24.383l-99.955,45.63c-4.203,1.919-9.15,1.919-13.353,0l-99.955-45.63
			c-11.004-5.023-11.003-19.361,0.001-24.383h0l106.63,48.674L400.287,261.021z"/>
		<polygon style="fill:none;stroke:#414141;stroke-width:7.6089;stroke-miterlimit:10;" points="455.98,377.199 435.016,360.154 
			435.016,384.808 119.288,384.808 119.288,93.87 144.409,93.87 127.364,72.905 110.319,51.941 93.274,72.905 76.229,93.87 
			100.9,93.87 100.9,396.575 102.96,399.709 105.665,402.562 435.016,402.562 435.016,428.334 455.98,411.289 476.944,394.244 		"/>
		
			<line style="fill:none;stroke:#414141;stroke-width:7.6089;stroke-miterlimit:10;" x1="369.746" y1="432.997" x2="369.746" y2="459.628"/>
		
			<line style="fill:none;stroke:#414141;stroke-width:7.6089;stroke-miterlimit:10;" x1="164.307" y1="432.997" x2="164.307" y2="459.628"/>
		
			<line style="fill:none;stroke:#414141;stroke-width:7.6089;stroke-miterlimit:10;" x1="164.307" y1="446.313" x2="369.746" y2="446.313"/>
		
			<line style="fill:none;stroke:#414141;stroke-width:7.6089;stroke-miterlimit:10;" x1="58.734" y1="355.958" x2="32.103" y2="355.958"/>
		
			<line style="fill:none;stroke:#414141;stroke-width:7.6089;stroke-miterlimit:10;" x1="58.734" y1="150.519" x2="32.103" y2="150.519"/>
		
			<line style="fill:none;stroke:#414141;stroke-width:7.6089;stroke-miterlimit:10;" x1="45.418" y1="150.519" x2="45.418" y2="355.958"/>
	</g>
</g>
<g id="Stopwatch" style="display:none;">
	<g style="display:inline;">
		<circle style="fill:none;stroke:#000000;stroke-width:8.8961;stroke-miterlimit:10;" cx="258.193" cy="292.388" r="139.001"/>
		<circle style="fill:none;stroke:#000000;stroke-width:8.8961;stroke-miterlimit:10;" cx="258.193" cy="292.388" r="159.017"/>
		
			<rect x="208.956" y="67.714" style="fill:none;stroke:#000000;stroke-width:8.8961;stroke-miterlimit:10;" width="98.474" height="39.018"/>
		
			<rect x="358.093" y="127.7" transform="matrix(0.8 0.6 -0.6 0.8 162.1757 -200.8392)" style="fill:none;stroke:#000000;stroke-width:8.8961;stroke-miterlimit:10;" width="48.455" height="30.247"/>
		
			<rect x="104.556" y="127.7" transform="matrix(0.709 -0.7052 0.7052 0.709 -63.2444 132.3823)" style="fill:none;stroke:#000000;stroke-width:8.8961;stroke-miterlimit:10;" width="48.455" height="30.247"/>
		<path style="fill:none;stroke:#000000;stroke-width:8.8961;stroke-miterlimit:10;" d="M270.905,310.775l-6.172-64.739
			l-6.54-68.592l-6.54,68.592l-6.172,64.739c-0.372,1.228-0.633,2.504-0.633,3.853c0,7.37,5.974,13.344,13.344,13.344
			c7.37,0,13.344-5.974,13.344-13.344C271.537,313.279,271.277,312.003,270.905,310.775z"/>
		
			<line style="fill:none;stroke:#000000;stroke-width:8.8961;stroke-miterlimit:10;" x1="373.981" y1="295.724" x2="357.301" y2="295.724"/>
		
			<line style="fill:none;stroke:#000000;stroke-width:8.8961;stroke-miterlimit:10;" x1="138.235" y1="295.724" x2="156.027" y2="295.724"/>
		
			<line style="fill:none;stroke:#000000;stroke-width:8.8961;stroke-miterlimit:10;" x1="260.556" y1="394.693" x2="260.556" y2="412.485"/>
	</g>
</g>
<g id="Open_Source_Octocat" style="display:none;">
	
		<path style="display:inline;fill-rule:evenodd;clip-rule:evenodd;fill:none;stroke:#191717;stroke-width:8.9481;stroke-miterlimit:10;" d="
		M256.278,104.809c-83.445,0-151.112,67.652-151.112,151.112c0,66.765,43.298,123.408,103.34,143.39
		c7.551,1.398,10.325-3.279,10.325-7.27c0-3.602-0.139-15.508-0.205-28.134c-42.039,9.142-50.91-17.829-50.91-17.829
		c-6.874-17.465-16.778-22.111-16.778-22.111c-13.712-9.379,1.033-9.186,1.033-9.186c15.173,1.066,23.164,15.574,23.164,15.574
		c13.477,23.1,35.351,16.422,43.975,12.561c1.356-9.765,5.271-16.434,9.594-20.207c-33.564-3.82-68.849-16.779-68.849-74.68
		c0-16.497,5.904-29.978,15.571-40.561c-1.569-3.807-6.742-19.176,1.464-39.992c0,0,12.69-4.059,41.565,15.492
		c12.055-3.349,24.982-5.028,37.824-5.087c12.842,0.059,25.779,1.738,37.856,5.087c28.843-19.551,41.514-15.492,41.514-15.492
		c8.225,20.816,3.052,36.184,1.483,39.992c9.689,10.582,15.552,24.063,15.552,40.561c0,58.041-35.351,70.819-69.001,74.56
		c5.42,4.69,10.249,13.885,10.249,27.983c0,20.219-0.173,36.492-0.173,41.47c0,4.022,2.72,8.734,10.378,7.251
		c60.01-20.004,103.254-76.628,103.254-143.37C407.39,172.461,339.733,104.809,256.278,104.809z"/>
	
		<circle style="display:inline;fill:none;stroke:#000000;stroke-width:8.9481;stroke-miterlimit:10;" cx="256.278" cy="252.19" r="172.25"/>
</g>
<g id="Member_Stories" style="display:none;">
	<path style="display:inline;fill:none;stroke:#414141;stroke-width:12.1295;stroke-linejoin:round;stroke-miterlimit:10;" d="
		M253.89,113.541L253.89,113.541c77.294,0,178.443,50.715,178.443,113.259c0,62.552-101.149,113.267-178.443,113.267
		c-7.426,0-14.707-0.482-21.823-1.375c-30.059,29.94-64.774,35.307-99.472,36.1v-7.326c18.733-9.138,33.823-25.795,33.823-44.829
		c0-2.652-0.201-5.267-0.583-7.81C134.171,294.062,84,262.344,84,226.8C84,164.256,176.595,113.541,253.89,113.541z"/>
	
		<circle style="display:inline;fill:none;stroke:#414141;stroke-width:12.1295;stroke-miterlimit:10;" cx="195.077" cy="231.945" r="21.044"/>
	
		<circle style="display:inline;fill:none;stroke:#414141;stroke-width:12.1295;stroke-miterlimit:10;" cx="261.459" cy="231.806" r="18.626"/>
	
		<circle style="display:inline;fill:none;stroke:#414141;stroke-width:12.1295;stroke-miterlimit:10;" cx="325.598" cy="226.509" r="21.044"/>
</g>
<g id="Refresh" style="display:none;">
	<path style="display:inline;fill:none;stroke:#414141;stroke-width:14.5887;stroke-miterlimit:10;" d="M217.028,453.242
		c-112.806,0-204.242-91.436-204.242-204.242S104.222,44.758,217.028,44.758v43.766c-42.854,0-83.173,16.697-113.476,47.015
		C73.236,165.827,56.552,206.146,56.552,249s16.684,83.173,47.001,113.461c30.302,30.318,70.621,47.015,113.476,47.015
		s83.173-16.697,113.476-47.015c23.308-23.307,38.552-52.527,44.364-84.284h-84.896l102.121-116.71l102.121,116.71H419.19
		C405.029,377.15,319.918,453.242,217.028,453.242z"/>
</g>
<g id="download" style="display:none;">
	<path style="display:inline;fill:none;stroke:#414141;stroke-width:13.689;stroke-miterlimit:10;" d="M176.102,486.055
		c0,0,13.551-51.312-45.296-117.512l-1.956-2.041c-24.791-29.386-38.448-66.662-38.448-104.981
		c0-89.956,73.267-163.148,163.329-163.148h3.794c90.062,0,163.337,73.192,163.337,163.148c0,38.319-13.658,75.596-38.425,104.951
		c-0.287,0.332-0.953,1.019-1.957,2.026c-52.243,52.311-45.326,117.557-45.326,117.557
		c95.399-32.892,159.853-122.591,160.398-223.219C496.239,137.04,394.689,29.807,269.203,23.79
		c-1.565-0.076-3.114-0.106-4.664-0.106c-1.896,0-8.762,0.041-8.725,0.041c-0.204,0-7.199-0.041-9.089-0.041
		c-1.549,0-3.106,0.03-4.648,0.106C116.568,29.807,15.026,137.04,15.713,262.836C16.25,363.464,80.706,453.163,176.102,486.055z"/>
	<polygon style="display:inline;fill:none;stroke:#414141;stroke-width:13.689;stroke-miterlimit:10;" points="295.74,278.963 
		295.74,153.485 218.169,153.485 218.169,278.963 178.614,278.963 218.168,325.738 257.722,372.513 297.276,325.738 336.83,278.963 
			"/>
</g>
<g id="App_Developer" style="display:none;">
	<polygon style="display:inline;fill:none;stroke:#414141;stroke-width:6.8236;stroke-miterlimit:10;" points="334.495,162.851 
		334.495,194.884 393.271,253.656 334.495,312.432 334.495,344.465 425.302,253.658 	"/>
	<polygon style="display:inline;fill:none;stroke:#414141;stroke-width:6.8236;stroke-miterlimit:10;" points="175.072,312.432 
		116.296,253.656 175.072,194.884 175.072,162.851 84.265,253.658 175.072,344.465 	"/>
	<path style="display:inline;fill:none;stroke:#414141;stroke-width:6.8236;stroke-miterlimit:10;" d="M487.667,395.511h-462
		c-2.118,0-3.835-1.717-3.835-3.835v-270.48c0-2.118,1.717-3.835,3.835-3.835h462c2.118,0,3.835,1.717,3.835,3.835v270.48
		C491.502,393.794,489.785,395.511,487.667,395.511z"/>
	
		<line style="display:inline;fill:none;stroke:#414141;stroke-width:6.8236;stroke-miterlimit:10;" x1="318.66" y1="116.792" x2="186.736" y2="396.562"/>
</g>
<g id="announcement" style="display:none;">
	
		<line style="display:inline;fill:none;stroke:#414141;stroke-width:10.4186;stroke-miterlimit:10;" x1="107.413" y1="315.02" x2="29.5" y2="229.316"/>
	
		<line style="display:inline;fill:none;stroke:#414141;stroke-width:10.4186;stroke-miterlimit:10;" x1="415.169" y1="287.751" x2="477.5" y2="202.046"/>
	
		<line style="display:inline;fill:none;stroke:#414141;stroke-width:10.4186;stroke-miterlimit:10;" x1="313.882" y1="264.377" x2="337.256" y2="92.968"/>
	
		<line style="display:inline;fill:none;stroke:#414141;stroke-width:10.4186;stroke-miterlimit:10;" x1="197.013" y1="264.377" x2="142.474" y2="108.551"/>
	<path style="display:inline;fill:none;stroke:#000000;stroke-width:10.4186;stroke-miterlimit:10;" d="M263.239,318.915
		c-66.697,0-120.766,33.139-120.766,74.018c0,1.321,0.211,2.609,0.322,3.913c34.524,12.276,75.902,19.461,120.443,19.461
		c44.541,0,85.919-7.185,120.443-19.461c0.111-1.304,0.322-2.591,0.322-3.913C384.004,352.055,329.936,318.915,263.239,318.915z"/>
</g>
<g id="rabbit_head" style="display:none;">
	<g style="display:inline;">
		<path style="fill:none;stroke:#414141;stroke-width:9.9948;stroke-miterlimit:10;" d="M383.632,210.575
			c8.889-16.892,29.718-29.88,49.857-42.439c29.594-18.454,60.19-37.539,53.267-70.998c-1.568-7.581-7.301-20.569-28.071-22.41
			c-29.718-2.655-73.373,19.001-90.76,28.423c-27.317,14.803-58.915,36.654-65.682,53.579
			c-5.479,13.691-11.563,40.357-18.109,79.347c-18.916-6.566-38.652-7.047-57.763-1.379c-6.455-38.248-12.461-64.446-17.875-77.974
			c-6.767-16.918-38.365-38.769-65.682-53.572c-17.38-9.422-60.99-31.084-90.76-28.423c-20.77,1.841-26.497,14.83-28.065,22.41
			c-6.923,33.459,23.673,52.544,53.26,70.998c20.139,12.559,40.968,25.547,49.857,42.439c14.01,26.607,28.312,53.169,37.129,69.456
			c-17.784,23.725-27.876,51.959-27.876,78.436c0,72.326,75.944,72.326,116.743,72.326s116.743,0,116.743-72.326
			c0-6.528-0.659-13.193-1.872-19.886c4.656,3.059,9.545,5.25,14.024,5.623c15.128,1.261,28.913-15.977,54.946-23
			c14.656-3.954-35.251-30.52-50.379-31.781c-9.584-0.799-22.39,6.184-30.659,13.309c-3.267-6.58-7.032-13.002-11.334-19.128
			C355.073,264.232,369.518,237.384,383.632,210.575z"/>
	</g>
	<g style="display:inline;">
		<path style="fill:#414141;" d="M281.855,337.788c1.18,15.639,6.854,27.521,13.712,27.521c6.91,0,12.609-12.074,13.727-27.893
			L281.855,337.788z"/>
		<path style="fill:#414141;" d="M215.271,365.309c6.755,0,12.387-11.511,13.681-26.805l-27.319,0.369
			C202.988,353.977,208.573,365.309,215.271,365.309z"/>
	</g>
	<polygon style="display:inline;fill:none;stroke:#414141;stroke-width:9.9948;stroke-miterlimit:10;" points="351.73,296.199 
		154.611,296.199 139.619,334.291 365.75,334.291 	"/>
</g>
<g id="gear" style="display:none;">
	<path style="display:inline;fill:none;stroke:#414141;stroke-width:12.5511;stroke-miterlimit:10;" d="M419.73,296.694
		c-21.069-36.501-8.397-83.286,28.3-104.527l-39.467-68.37c-11.276,6.619-24.391,10.406-38.376,10.406
		c-42.188,0-76.374-34.417-76.374-76.876l-78.922,0.013c0.098,13.102-3.163,26.402-10.186,38.536
		c-21.07,36.501-67.915,48.905-104.661,27.749l-39.48,68.37c11.35,6.46,21.191,15.91,28.179,28.032
		c21.044,36.44,8.444,83.115-28.118,104.417l39.468,68.37c11.24-6.557,24.293-10.296,38.204-10.296
		c42.054,0,76.153,34.197,76.361,76.459h78.935c-0.038-12.98,3.247-26.107,10.185-38.131c21.033-36.44,67.756-48.868,104.478-27.847
		l39.48-68.37C436.461,318.18,426.692,308.754,419.73,296.694z M254.297,339.47c-44.909,0-81.313-36.403-81.313-81.313
		c0-44.909,36.403-81.312,81.313-81.312c44.909,0,81.312,36.403,81.312,81.312C335.61,303.067,299.206,339.47,254.297,339.47z"/>
</g>
<g id="Join" style="display:none;">
	<g style="display:inline;">
		<path style="fill:none;stroke:#414141;stroke-width:8.4711;stroke-miterlimit:10;" d="M219.986,450.869
			c0,0,6.731-25.486-22.498-58.366l-0.972-1.014c-12.313-14.595-19.097-33.11-19.097-52.142c0-44.679,36.391-81.033,81.123-81.033
			h1.884c44.732,0,81.127,36.353,81.127,81.033c0,19.033-6.784,37.547-19.085,52.128c-0.142,0.165-0.473,0.506-0.972,1.006
			c-25.948,25.982-22.513,58.389-22.513,58.389C346.367,434.532,378.38,389.98,378.651,340
			c0.341-62.481-50.097-115.742-112.423-118.73c-0.777-0.038-1.547-0.053-2.317-0.053c-0.942,0-4.448,0.067-4.43,0.067
			c-0.101,0-3.48-0.067-4.418-0.067c-0.77,0-1.543,0.015-2.309,0.053c-62.338,2.988-112.772,56.249-112.431,118.73
			C140.59,389.98,172.604,434.532,219.986,450.869z"/>
		<g>
			
				<line style="fill:none;stroke:#414141;stroke-width:8.4711;stroke-miterlimit:10;" x1="153.599" y1="210.358" x2="97.125" y2="148.237"/>
			
				<line style="fill:none;stroke:#414141;stroke-width:8.4711;stroke-miterlimit:10;" x1="376.67" y1="190.592" x2="421.849" y2="128.471"/>
			
				<line style="fill:none;stroke:#414141;stroke-width:8.4711;stroke-miterlimit:10;" x1="303.254" y1="173.65" x2="320.196" y2="49.408"/>
			
				<line style="fill:none;stroke:#414141;stroke-width:8.4711;stroke-miterlimit:10;" x1="218.543" y1="173.65" x2="179.012" y2="60.703"/>
		</g>
	</g>
</g>
<g id="shop" style="display:none;">
	<polygon style="display:inline;fill:none;stroke:#414141;stroke-width:7.4088;stroke-miterlimit:10;" points="332.872,443 
		105.315,400.311 105.315,161.111 332.872,133.593 	"/>
	<polygon style="display:inline;fill:none;stroke:#414141;stroke-width:7.4088;stroke-miterlimit:10;" points="335.694,133.946 
		408.019,144.177 408.019,421.479 335.694,442.294 	"/>
	<path style="display:inline;fill:none;stroke:#414141;stroke-width:7.4088;stroke-miterlimit:10;" d="M152.591,155.965
		c6.733-49.569,35.844-91.638,70.736-98.577c37.29-7.416,67.977,27.919,71.802,80.335"/>
	<path style="display:inline;fill:none;stroke:#414141;stroke-width:7.4088;stroke-miterlimit:10;" d="M243.258,146.439
		c5.802-42.718,30.89-78.974,60.96-84.954c34.366-6.834,62.225,28.463,62.225,78.839"/>
	<g style="display:inline;">
		<path style="fill:#414141;" d="M215.213,214.452c21.517,0.002,40.264,18.536,40.984,45.549
			c0.651,24.338-13.606,46.083-33.481,53.392c0,0-1.832-14.293,8.427-26.349c0.203-0.239,0.338-0.402,0.396-0.481
			c5.065-7.035,7.767-15.874,7.482-24.723c-0.589-18.322-13.025-30.888-27.742-30.888c-1.967,0-3.976,0.225-6.002,0.69l-0.687,0.158
			c-15.502,3.562-26.626,20.319-26.069,37.644c0.237,7.38,2.571,14.397,6.649,19.865l0.324,0.383
			c10.105,12.86,8.153,23.223,8.153,23.223c-15.42-6.554-25.436-23.169-26.112-41.846c-0.848-23.333,13.581-47.358,34.464-54.339
			c0.274-0.092,0.552-0.176,0.829-0.252c0.339-0.094,1.564-0.405,1.6-0.416l0,0c0,0,1.274-0.382,1.619-0.478
			c0.283-0.079,0.567-0.151,0.854-0.215C209.697,214.752,212.476,214.452,215.213,214.452 M215.214,207.043h-0.004
			c-3.301,0-6.636,0.369-9.913,1.096c-0.394,0.087-0.798,0.188-1.231,0.309c-0.197,0.055-0.658,0.19-1.069,0.312l-0.487,0.145
			c-0.021,0.006-0.042,0.013-0.063,0.019l-0.07,0.018c-0.414,0.106-1.249,0.321-1.53,0.399c-0.426,0.118-0.821,0.239-1.205,0.368
			c-23.511,7.86-40.5,34.357-39.509,61.631c0.791,21.829,12.809,40.826,30.618,48.395l8.474,3.602l1.704-9.049
			c0.264-1.399,2.233-14.103-9.609-29.172l-0.085-0.108l-0.089-0.105l-0.164-0.194c-3.076-4.207-4.87-9.703-5.056-15.502
			c-0.221-6.894,1.811-13.842,5.724-19.564c3.801-5.56,8.986-9.332,14.599-10.621l0.687-0.158c1.45-0.333,2.911-0.502,4.343-0.502
			c5.16,0,10.036,2.2,13.729,6.194c4.038,4.368,6.385,10.591,6.608,17.523c0.23,7.161-1.895,14.26-5.987,20.012
			c-0.036,0.043-0.079,0.094-0.129,0.152c-12.241,14.385-10.225,31.376-10.134,32.093l1.182,9.22l8.724-3.209
			c23.292-8.566,39.054-33.463,38.33-60.544c-0.39-14.61-5.603-28.019-14.68-37.757
			C239.907,212.373,227.935,207.045,215.214,207.043L215.214,207.043z"/>
	</g>
</g>
<g id="ecosystem" style="display:none;">
	
		<circle style="display:inline;fill:none;stroke:#414141;stroke-width:13.1436;stroke-linecap:round;stroke-linejoin:round;stroke-miterlimit:10;" cx="255.333" cy="257" r="162.667"/>
	
		<circle style="display:inline;fill:none;stroke:#414141;stroke-width:13.1436;stroke-linecap:round;stroke-linejoin:round;stroke-miterlimit:10;" cx="204.667" cy="238" r="22"/>
	
		<circle style="display:inline;fill:none;stroke:#414141;stroke-width:13.1436;stroke-linecap:round;stroke-linejoin:round;stroke-miterlimit:10;" cx="254.667" cy="162" r="22"/>
	
		<line style="display:inline;fill:none;stroke:#414141;stroke-width:13.1436;stroke-linecap:round;stroke-linejoin:round;stroke-miterlimit:10;" x1="203.667" y1="267" x2="203.667" y2="299"/>
	
		<line style="display:inline;fill:none;stroke:#414141;stroke-width:13.1436;stroke-linecap:round;stroke-linejoin:round;stroke-miterlimit:10;" x1="255.667" y1="184" x2="255.667" y2="419"/>
	
		<line style="display:inline;fill:none;stroke:#414141;stroke-width:13.1436;stroke-linecap:round;stroke-linejoin:round;stroke-miterlimit:10;" x1="202.667" y1="301" x2="254.667" y2="345"/>
	
		<circle style="display:inline;fill:none;stroke:#414141;stroke-width:13.1436;stroke-linecap:round;stroke-linejoin:round;stroke-miterlimit:10;" cx="306.667" cy="217" r="22"/>
	
		<line style="display:inline;fill:none;stroke:#414141;stroke-width:13.1436;stroke-linecap:round;stroke-linejoin:round;stroke-miterlimit:10;" x1="308.667" y1="239" x2="307.667" y2="259"/>
	
		<line style="display:inline;fill:none;stroke:#414141;stroke-width:13.1436;stroke-linecap:round;stroke-linejoin:round;stroke-miterlimit:10;" x1="308.667" y1="261" x2="256.667" y2="305"/>
</g>
<g id="voice" style="display:none;">
	
		<path style="display:inline;fill:none;stroke:#414141;stroke-width:15.2309;stroke-linecap:round;stroke-linejoin:round;stroke-miterlimit:10;" d="
		M451.826,228.322c0-73.67-89.582-133.391-200.087-133.391S51.652,154.652,51.652,228.322c0,73.67,89.582,133.391,200.087,133.391
		c25.793,0,50.445-3.256,73.085-9.181C346.276,381.476,344.803,416,344.803,416c45.789-34.621,50.453-70.388,47.738-92.913
		C429.146,298.913,451.826,265.385,451.826,228.322z"/>
	
		<circle style="display:inline;fill:none;stroke:#414141;stroke-width:13.1436;stroke-linecap:round;stroke-linejoin:round;stroke-miterlimit:10;" cx="204.667" cy="227" r="22"/>
	
		<circle style="display:inline;fill:none;stroke:#414141;stroke-width:13.1436;stroke-linecap:round;stroke-linejoin:round;stroke-miterlimit:10;" cx="254.667" cy="151" r="22"/>
	
		<line style="display:inline;fill:none;stroke:#414141;stroke-width:13.1436;stroke-linecap:round;stroke-linejoin:round;stroke-miterlimit:10;" x1="203.667" y1="256" x2="203.667" y2="288"/>
	
		<line style="display:inline;fill:none;stroke:#414141;stroke-width:13.1436;stroke-linecap:round;stroke-linejoin:round;stroke-miterlimit:10;" x1="255.667" y1="173" x2="255.667" y2="363"/>
	
		<line style="display:inline;fill:none;stroke:#414141;stroke-width:13.1436;stroke-linecap:round;stroke-linejoin:round;stroke-miterlimit:10;" x1="202.667" y1="290" x2="254.667" y2="334"/>
	
		<circle style="display:inline;fill:none;stroke:#414141;stroke-width:13.1436;stroke-linecap:round;stroke-linejoin:round;stroke-miterlimit:10;" cx="306.667" cy="206" r="22"/>
	
		<line style="display:inline;fill:none;stroke:#414141;stroke-width:13.1436;stroke-linecap:round;stroke-linejoin:round;stroke-miterlimit:10;" x1="308.667" y1="228" x2="307.667" y2="248"/>
	
		<line style="display:inline;fill:none;stroke:#414141;stroke-width:13.1436;stroke-linecap:round;stroke-linejoin:round;stroke-miterlimit:10;" x1="308.667" y1="250" x2="256.667" y2="294"/>
</g>
<g id="access" style="display:none;">
	<g style="display:inline;">
		<path style="fill:#414141;" d="M114.208,264.704c0.213,0,0.425,0.004,0.64,0.014c17.211,0.825,31.139,15.533,31.045,32.787
			c-0.075,13.802-8.915,26.104-22,30.616c0,0-0.949-8.949,6.217-16.124c0.138-0.138,0.229-0.232,0.268-0.278
			c3.397-4.026,5.27-9.139,5.27-14.395c0-12.338-10.05-22.377-22.403-22.377h-0.52c-12.353,0-22.402,10.039-22.402,22.377
			c0,5.256,1.873,10.368,5.273,14.399l0.268,0.28c8.071,9.08,6.213,16.117,6.213,16.117c-13.084-4.511-21.925-16.814-21.998-30.616
			c-0.094-17.254,13.833-31.961,31.047-32.787c0.211-0.01,0.425-0.014,0.637-0.014c0.259,0,1.191,0.019,1.22,0.019h0c0,0,0,0,0,0
			C112.987,264.723,113.949,264.704,114.208,264.704 M114.208,256.704c-0.009,0-0.673,0.002-1.246,0.017
			c-0.327-0.006-0.976-0.017-1.197-0.017c-0.344,0-0.689,0.007-1.031,0.024c-21.426,1.027-38.771,19.339-38.653,40.821
			c0.092,17.192,11.099,32.518,27.39,38.135l8.143,2.808l2.199-8.328c0.217-0.822,0.862-3.842,0.048-8.175
			c-0.994-5.287-3.691-10.435-8.016-15.3l-0.1-0.112l-0.104-0.108l-0.073-0.077c-2.093-2.562-3.244-5.772-3.244-9.067
			c0-7.927,6.461-14.377,14.402-14.377h0.52c7.942,0,14.403,6.449,14.403,14.377c0,3.29-1.147,6.496-3.234,9.054
			c-9.549,9.592-8.615,21.282-8.477,22.585l1.06,9.996l9.503-3.277c16.291-5.617,27.299-20.942,27.392-38.136
			c0.117-21.481-17.226-39.793-38.662-40.821C114.891,256.712,114.55,256.704,114.208,256.704L114.208,256.704z"/>
	</g>
	<g style="display:inline;">
		<path style="fill:#414141;" d="M447.682,107c18.217,0,32.984,14.768,32.984,32.984v197.031c0,18.217-14.768,32.984-32.984,32.984
			H67.651c-18.217,0-32.984-14.768-32.984-32.984V139.984c0-18.217,14.768-32.984,32.984-32.984H447.682 M447.682,99H67.651
			c-22.599,0-40.984,18.386-40.984,40.984v197.031c0,22.599,18.386,40.984,40.984,40.984h380.031
			c22.599,0,40.984-18.386,40.984-40.984V139.984C488.667,117.386,470.281,99,447.682,99L447.682,99z"/>
	</g>
	<g style="display:inline;">
		<path style="fill:#414141;" d="M480.37,160v63H34.667v-63H480.37 M488.37,152h-8H34.667h-8v8v63v8h8H480.37h8v-8v-63V152
			L488.37,152z"/>
	</g>
	<g style="display:inline;">
		<path style="fill:#414141;" d="M279.667,277v12h-104v-12H279.667 M287.667,269h-8h-104h-8v8v12v8h8h104h8v-8v-12V269L287.667,269z
			"/>
	</g>
	<g style="display:inline;">
		<path style="fill:#414141;" d="M234.569,310v12h-58.902v-12H234.569 M242.569,302h-8h-58.902h-8v8v12v8h8h58.902h8v-8v-12V302
			L242.569,302z"/>
	</g>
</g>
<g id="commit" style="display:none;">
	<path style="display:inline;fill:none;stroke:#414141;stroke-width:10.3186;stroke-miterlimit:10;" d="M235.37,226.539h-29.655
		l52.786-74.96l52.786,74.96H281.63v91.294l123.2-101.009c10.8-8.854,10.8-25.375,0-34.23L272.532,74.125
		c-8.159-6.689-19.905-6.689-28.064,0L112.17,182.594c-10.8,8.854-10.8,25.375,0,34.23l123.2,101.009V226.539z"/>
	<path style="display:inline;fill:none;stroke:#414141;stroke-width:10.3186;stroke-miterlimit:10;" d="M112.17,237.208
		L112.17,237.208c-10.8,8.854-10.8,25.375,0,34.23l132.298,108.469c8.159,6.689,19.905,6.689,28.064,0L404.83,271.438
		c10.8-8.854,10.8-25.375,0-34.23l-0.476-0.39"/>
	<path style="display:inline;fill:none;stroke:#414141;stroke-width:10.3186;stroke-miterlimit:10;" d="M112.17,297.939
		L112.17,297.939c-10.8,8.854-10.8,25.375,0,34.23l132.298,108.469c8.159,6.689,19.905,6.689,28.064,0L404.83,332.169
		c10.8-8.854,10.8-25.375,0-34.23l-0.476-0.39"/>
</g>
<g id="Training" style="display:none;">
	<polyline style="display:inline;fill:none;stroke:#2EBADB;stroke-width:7;stroke-miterlimit:10;" points="396.993,166 
		396.993,257.505 128.684,257.505 128.684,166 	"/>
	
		<line style="display:inline;fill:none;stroke:#2EBADB;stroke-width:7;stroke-miterlimit:10;" x1="195.253" y1="124.945" x2="195.253" y2="98.57"/>
	
		<line style="display:inline;fill:none;stroke:#2EBADB;stroke-width:7;stroke-miterlimit:10;" x1="330.424" y1="98.57" x2="330.424" y2="124.945"/>
	<g style="display:inline;">
		<path style="fill:none;stroke:#2EBADB;stroke-width:7;stroke-miterlimit:10;" d="M263.046,43.833
			c0,30.652-31.881,55.5-71.208,55.5c-8.838,0-17.3-1.255-25.108-3.549"/>
		<path style="fill:none;stroke:#2EBADB;stroke-width:7;stroke-miterlimit:10;" d="M358.81,95.825
			c-7.77,2.268-16.185,3.508-24.971,3.508c-39.327,0-71.208-24.848-71.208-55.5"/>
	</g>
	<g style="display:inline;">
		<path style="fill:none;stroke:#2EBADB;stroke-width:7;stroke-miterlimit:10;" d="M426.81,163.158
			c-7.77,2.268-16.185,3.508-24.971,3.508c-39.327,0-71.208-24.848-71.208-55.5"/>
	</g>
	<g style="display:inline;">
		<path style="fill:none;stroke:#2EBADB;stroke-width:7;stroke-miterlimit:10;" d="M195.713,111.167
			c0,30.652-31.881,55.5-71.208,55.5c-8.838,0-17.3-1.255-25.108-3.549"/>
	</g>
	
		<line style="display:inline;fill:none;stroke:#2EBADB;stroke-width:7;stroke-miterlimit:10;" x1="194" y1="122" x2="330" y2="122"/>
	
		<line style="display:inline;fill:none;stroke:#2EBADB;stroke-width:7;stroke-miterlimit:10;" x1="397.333" y1="168.667" x2="132" y2="168.667"/>
	
		<rect x="231.333" y="210" style="display:inline;fill:none;stroke:#2EBADB;stroke-width:7;stroke-miterlimit:10;" width="62.667" height="47.37"/>
	
		<line style="display:inline;fill:none;stroke:#2EBADB;stroke-width:7;stroke-miterlimit:10;" x1="219.333" y1="97.333" x2="219.333" y2="121.333"/>
	
		<line style="display:inline;fill:none;stroke:#2EBADB;stroke-width:7;stroke-miterlimit:10;" x1="238.667" y1="85.333" x2="238.667" y2="121.333"/>
	
		<line style="display:inline;fill:none;stroke:#2EBADB;stroke-width:7;stroke-miterlimit:10;" x1="262.667" y1="61.667" x2="262.667" y2="119"/>
	
		<line style="display:inline;fill:none;stroke:#2EBADB;stroke-width:7;stroke-miterlimit:10;" x1="287.667" y1="85.333" x2="287.667" y2="121.333"/>
	
		<line style="display:inline;fill:none;stroke:#2EBADB;stroke-width:7;stroke-miterlimit:10;" x1="307.333" y1="96" x2="307.333" y2="120"/>
	<polygon style="display:inline;fill:none;stroke:#2EBADB;stroke-width:7;stroke-miterlimit:10;" points="90.667,258.333 
		436.667,258.333 346,379 330,363.667 262,453.667 187.333,346.333 167.333,365.667 	"/>
</g>
<g id="community-projects" style="display:none;">
	<polygon style="display:inline;fill:none;stroke:#2EBADB;stroke-width:7.4951;stroke-miterlimit:10;" points="181.386,406.592 
		89.103,290.872 122.038,146.571 255.392,82.351 388.746,146.571 421.682,290.872 329.398,406.592 	"/>
	<circle style="display:inline;fill:#2EBADB;" cx="387.449" cy="146.446" r="21.415"/>
	
		<line style="display:inline;fill:none;stroke:#2EBADB;stroke-width:7.4951;stroke-miterlimit:10;" x1="256.285" y1="82.738" x2="256.285" y2="250.842"/>
	
		<line style="display:inline;fill:none;stroke:#2EBADB;stroke-width:7.4951;stroke-miterlimit:10;" x1="388.519" y1="147.517" x2="257.891" y2="251.377"/>
	
		<line style="display:inline;fill:none;stroke:#2EBADB;stroke-width:7.4951;stroke-miterlimit:10;" x1="420.641" y1="288.853" x2="254.678" y2="252.448"/>
	
		<line style="display:inline;fill:none;stroke:#2EBADB;stroke-width:7.4951;stroke-miterlimit:10;" x1="329.629" y1="406.633" x2="256.82" y2="253.519"/>
	
		<line style="display:inline;fill:none;stroke:#2EBADB;stroke-width:7.4951;stroke-miterlimit:10;" x1="180.798" y1="405.562" x2="256.82" y2="253.519"/>
	
		<circle style="display:inline;fill:#FFFFFF;stroke:#2EBADB;stroke-width:7.4951;stroke-miterlimit:10;" cx="420.284" cy="285.997" r="21.415"/>
	<circle style="display:inline;fill:#2EBADB;" cx="329.629" cy="404.491" r="21.415"/>
	
		<circle style="display:inline;fill:#FFFFFF;stroke:#2EBADB;stroke-width:7.4951;stroke-miterlimit:10;" cx="181.869" cy="405.919" r="21.415"/>
	
		<line style="display:inline;fill:none;stroke:#2EBADB;stroke-width:7.4951;stroke-miterlimit:10;" x1="86.574" y1="288.853" x2="255.749" y2="253.519"/>
	
		<line style="display:inline;fill:none;stroke:#2EBADB;stroke-width:7.4951;stroke-miterlimit:10;" x1="120.838" y1="147.517" x2="256.82" y2="252.448"/>
	<circle style="display:inline;fill:#2EBADB;" cx="88.716" cy="289.923" r="21.415"/>
	
		<circle style="display:inline;fill:#FFFFFF;stroke:#2EBADB;stroke-width:7.4951;stroke-miterlimit:10;" cx="255.749" cy="254.589" r="21.415"/>
	
		<circle style="display:inline;fill:#FFFFFF;stroke:#2EBADB;stroke-width:7.4951;stroke-miterlimit:10;" cx="121.908" cy="148.587" r="21.415"/>
	<circle style="display:inline;fill:#2EBADB;" cx="255.749" cy="85.415" r="21.415"/>
</g>
<g id="global_perception_study" style="display:none;">
	
		<circle style="display:inline;fill:#FFFFFF;stroke:#2EBADB;stroke-width:9;stroke-miterlimit:10;" cx="260.5" cy="253" r="181.333"/>
	
		<ellipse style="display:inline;fill:#FFFFFF;stroke:#2EBADB;stroke-width:9;stroke-miterlimit:10;" cx="260.5" cy="253" rx="108.333" ry="181.333"/>
	
		<line style="display:inline;fill:#FFFFFF;stroke:#2EBADB;stroke-width:9;stroke-miterlimit:10;" x1="441" y1="261.667" x2="80" y2="261.667"/>
	
		<line style="display:inline;fill:none;stroke:#2EBADB;stroke-width:9;stroke-miterlimit:10;" x1="260.5" y1="71.667" x2="260.5" y2="434.333"/>
	<circle style="display:inline;fill:#2EBADB;" cx="164" cy="330.333" r="23"/>
	<circle style="display:inline;fill:#2EBADB;" cx="364.667" cy="314" r="22.667"/>
	<circle style="display:inline;fill:#2EBADB;" cx="426.667" cy="187" r="20.667"/>
	
		<line style="display:inline;fill:none;stroke:#2EBADB;stroke-width:8;stroke-miterlimit:10;" x1="174.667" y1="312" x2="234.667" y2="178"/>
	
		<line style="display:inline;fill:none;stroke:#2EBADB;stroke-width:8;stroke-miterlimit:10;" x1="292.667" y1="174" x2="354.667" y2="299"/>
	
		<line style="display:inline;fill:#FFFFFF;stroke:#2EBADB;stroke-width:9;stroke-miterlimit:10;" x1="403.167" y1="365" x2="117.833" y2="365"/>
	
		<line style="display:inline;fill:#FFFFFF;stroke:#2EBADB;stroke-width:9;stroke-miterlimit:10;" x1="401.667" y1="141" x2="119.333" y2="141"/>
	<circle style="display:inline;fill:#2EBADB;" cx="80.667" cy="221" r="22.667"/>
	<circle style="display:inline;fill:#2EBADB;" cx="261" cy="157.667" r="40.333"/>
	
		<line style="display:inline;fill:none;stroke:#2EBADB;stroke-width:8;stroke-miterlimit:10;" x1="419.667" y1="206" x2="378.667" y2="300"/>
	
		<line style="display:inline;fill:none;stroke:#2EBADB;stroke-width:8;stroke-miterlimit:10;" x1="91.667" y1="239" x2="149.667" y2="319"/>
</g>
<g id="global_marketing" style="display:none;">
	
		<circle style="display:inline;fill:#FFFFFF;stroke:#2EBADB;stroke-width:9;stroke-miterlimit:10;" cx="258.5" cy="318" r="127.333"/>
	
		<ellipse style="display:inline;fill:#FFFFFF;stroke:#2EBADB;stroke-width:9;stroke-miterlimit:10;" cx="258.5" cy="318" rx="76.072" ry="127.333"/>
	
		<line style="display:inline;fill:#FFFFFF;stroke:#2EBADB;stroke-width:9;stroke-miterlimit:10;" x1="385.248" y1="324.086" x2="131.752" y2="324.086"/>
	
		<line style="display:inline;fill:none;stroke:#2EBADB;stroke-width:9;stroke-miterlimit:10;" x1="258.5" y1="190.667" x2="258.5" y2="445.333"/>
	
		<line style="display:inline;fill:#FFFFFF;stroke:#2EBADB;stroke-width:9;stroke-miterlimit:10;" x1="358.681" y1="396.647" x2="158.319" y2="396.647"/>
	
		<line style="display:inline;fill:#FFFFFF;stroke:#2EBADB;stroke-width:9;stroke-miterlimit:10;" x1="357.628" y1="239.353" x2="159.372" y2="239.353"/>
	<g style="display:inline;">
		
			<line style="fill:none;stroke:#414141;stroke-width:9;stroke-miterlimit:10;" x1="150.096" y1="205.693" x2="94.013" y2="143.219"/>
		
			<line style="fill:none;stroke:#414141;stroke-width:9;stroke-miterlimit:10;" x1="373.287" y1="187.326" x2="418.855" y2="125.489"/>
		
			<line style="fill:none;stroke:#414141;stroke-width:9;stroke-miterlimit:10;" x1="299.979" y1="169.924" x2="317.699" y2="45.79"/>
		<line style="fill:none;stroke:#414141;stroke-width:9;stroke-miterlimit:10;" x1="215.27" y1="169.393" x2="176.447" y2="56.2"/>
	</g>
	<circle style="display:inline;fill:#2EBADB;" cx="258.667" cy="324" r="34"/>
	<circle style="display:inline;fill:#2EBADB;" cx="319.667" cy="242" r="19"/>
	<circle style="display:inline;fill:#2EBADB;" cx="319.667" cy="396" r="17"/>
</g>
<g id="network_access" style="display:none;">
	
		<circle style="display:inline;fill:#FFFFFF;stroke:#2EBADB;stroke-width:9;stroke-miterlimit:10;" cx="274.5" cy="184" r="127.333"/>
	
		<ellipse style="display:inline;fill:#FFFFFF;stroke:#2EBADB;stroke-width:9;stroke-miterlimit:10;" cx="274.5" cy="184" rx="76.072" ry="127.333"/>
	
		<line style="display:inline;fill:#FFFFFF;stroke:#2EBADB;stroke-width:9;stroke-miterlimit:10;" x1="401.248" y1="190.086" x2="147.752" y2="190.086"/>
	
		<line style="display:inline;fill:none;stroke:#2EBADB;stroke-width:9;stroke-miterlimit:10;" x1="274.5" y1="56.667" x2="274.5" y2="311.333"/>
	
		<line style="display:inline;fill:#FFFFFF;stroke:#2EBADB;stroke-width:9;stroke-miterlimit:10;" x1="374.681" y1="262.647" x2="174.319" y2="262.647"/>
	
		<line style="display:inline;fill:#FFFFFF;stroke:#2EBADB;stroke-width:9;stroke-miterlimit:10;" x1="373.628" y1="105.353" x2="175.372" y2="105.353"/>
	
		<rect x="221.2" y="330.158" style="display:inline;fill:none;stroke:#2EBADB;stroke-width:9;stroke-miterlimit:10;" width="107" height="87"/>
	<polyline style="display:inline;fill:none;stroke:#2EBADB;stroke-width:9;stroke-miterlimit:10;" points="317.2,307.158 
		317.2,330.158 232.2,330.158 232.2,307.158 	"/>
	
		<rect x="245.7" y="417.553" style="display:inline;fill:none;stroke:#2EBADB;stroke-width:9;stroke-miterlimit:10;" width="58" height="22.605"/>
	
		<rect x="264.696" y="440.553" style="display:inline;fill:none;stroke:#2EBADB;stroke-width:9;stroke-miterlimit:10;" width="20.008" height="53.289"/>
	<polygon style="display:inline;fill:#2EBADB;" points="255.7,383.158 293.7,383.158 275.117,367.158 	"/>
	<circle style="display:inline;fill:#2EBADB;" cx="273.667" cy="189" r="34"/>
	<circle style="display:inline;fill:#2EBADB;" cx="334.667" cy="110" r="19"/>
	<circle style="display:inline;fill:#2EBADB;" cx="334.667" cy="261" r="17"/>
</g>
<g id="Product_Council" style="display:none;">
	
		<polygon style="display:inline;fill:none;stroke:#414141;stroke-width:6.9438;stroke-linecap:round;stroke-linejoin:round;stroke-miterlimit:10;" points="
		390.203,178.494 267.446,244.969 151.25,178.494 270.794,119.306 	"/>
	
		<polygon style="display:inline;fill:none;stroke:#414141;stroke-width:6.9438;stroke-linecap:round;stroke-linejoin:round;stroke-miterlimit:10;" points="
		390.203,131.045 267.446,197.52 151.25,131.045 270.794,71.857 	"/>
	
		<line style="display:inline;fill:none;stroke:#414141;stroke-width:6.9438;stroke-linecap:round;stroke-linejoin:round;stroke-miterlimit:10;" x1="390.203" y1="131.045" x2="390.203" y2="178.494"/>
	
		<line style="display:inline;fill:none;stroke:#414141;stroke-width:6.9438;stroke-linecap:round;stroke-linejoin:round;stroke-miterlimit:10;" x1="151.25" y1="131.045" x2="151.25" y2="178.494"/>
	
		<polygon style="display:inline;fill:none;stroke:#414141;stroke-width:6.9438;stroke-linecap:round;stroke-linejoin:round;stroke-miterlimit:10;" points="
		390.203,387.965 267.446,454.44 151.25,387.965 270.794,328.777 	"/>
	
		<polygon style="display:inline;fill:none;stroke:#414141;stroke-width:6.9438;stroke-linecap:round;stroke-linejoin:round;stroke-miterlimit:10;" points="
		390.203,340.516 267.446,406.991 151.25,340.516 270.794,281.328 	"/>
	
		<line style="display:inline;fill:none;stroke:#414141;stroke-width:6.9438;stroke-linecap:round;stroke-linejoin:round;stroke-miterlimit:10;" x1="390.203" y1="340.516" x2="390.203" y2="387.965"/>
	
		<line style="display:inline;fill:none;stroke:#414141;stroke-width:6.9438;stroke-linecap:round;stroke-linejoin:round;stroke-miterlimit:10;" x1="151.25" y1="340.516" x2="151.25" y2="387.965"/>
	<g style="display:inline;">
		<g>
			
				<line style="fill:none;stroke:#414141;stroke-width:4.6292;stroke-miterlimit:10;" x1="389.928" y1="188.91" x2="389.928" y2="193.539"/>
			
				<line style="fill:none;stroke:#414141;stroke-width:4.6292;stroke-miterlimit:10;stroke-dasharray:8.8661,11.0826;" x1="389.928" y1="204.621" x2="389.928" y2="318.772"/>
			
				<line style="fill:none;stroke:#414141;stroke-width:4.6292;stroke-miterlimit:10;" x1="389.928" y1="324.313" x2="389.928" y2="328.943"/>
		</g>
	</g>
	<g style="display:inline;">
		<g>
			
				<line style="fill:none;stroke:#414141;stroke-width:4.6292;stroke-miterlimit:10;" x1="150.368" y1="188.91" x2="150.368" y2="193.539"/>
			
				<line style="fill:none;stroke:#414141;stroke-width:4.6292;stroke-miterlimit:10;stroke-dasharray:8.7183,8.7183;" x1="150.368" y1="202.257" x2="150.368" y2="319.954"/>
			
				<line style="fill:none;stroke:#414141;stroke-width:4.6292;stroke-miterlimit:10;" x1="150.368" y1="324.313" x2="150.368" y2="328.943"/>
		</g>
	</g>
	<g style="display:inline;">
		<g>
			
				<line style="fill:none;stroke:#414141;stroke-width:2.0074;stroke-miterlimit:10;" x1="268.412" y1="252.561" x2="268.412" y2="254.568"/>
			
				<line style="fill:none;stroke:#414141;stroke-width:2.0074;stroke-miterlimit:10;stroke-dasharray:4.2892,4.2892;" x1="268.412" y1="258.858" x2="268.412" y2="273.87"/>
			
				<line style="fill:none;stroke:#414141;stroke-width:2.0074;stroke-miterlimit:10;" x1="268.412" y1="276.014" x2="268.412" y2="278.022"/>
		</g>
	</g>
</g>
<g id="Sigs" style="display:none;">
	
		<circle style="display:inline;fill:none;stroke:#414141;stroke-width:15.2309;stroke-linecap:round;stroke-linejoin:round;stroke-miterlimit:10;" cx="165.223" cy="221.052" r="25.5"/>
	
		<circle style="display:inline;fill:none;stroke:#414141;stroke-width:15.2309;stroke-linecap:round;stroke-linejoin:round;stroke-miterlimit:10;" cx="280.895" cy="283.663" r="25.5"/>
	
		<circle style="display:inline;fill:none;stroke:#414141;stroke-width:15.2309;stroke-linecap:round;stroke-linejoin:round;stroke-miterlimit:10;" cx="335.437" cy="180.949" r="25.5"/>
	
		<line style="display:inline;fill:none;stroke:#414141;stroke-width:15.2309;stroke-linecap:round;stroke-linejoin:round;stroke-miterlimit:10;" x1="323.819" y1="203.388" x2="295.518" y2="260.24"/>
	
		<line style="display:inline;fill:none;stroke:#414141;stroke-width:15.2309;stroke-linecap:round;stroke-linejoin:round;stroke-miterlimit:10;" x1="255.461" y1="271.028" x2="184.631" y2="238.655"/>
	
		<path style="display:inline;fill:none;stroke:#414141;stroke-width:15.2309;stroke-linecap:round;stroke-linejoin:round;stroke-miterlimit:10;" d="
		M459.754,234.609c0-73.67-89.582-133.391-200.087-133.391S59.58,160.939,59.58,234.609c0,36.554,22.062,69.667,57.787,93.758
		c6.3,18.633,5.238,47.773-15.7,62.633c0,0,54,9,73.007-35.616c8.88,2.782,18.113,5.147,27.649,7.046
		C221.671,394.73,213.667,456,213.667,456c49-20,57.332-65.533,60.004-88.325c20.721-0.956,40.574-4.013,59.081-8.856
		c21.452,28.945,19.979,63.468,19.979,63.468c45.789-34.621,50.453-70.388,47.738-92.913
		C437.073,305.2,459.754,271.672,459.754,234.609z"/>
</g>
<g id="Business">
	<linearGradient id="SVGID_3_" gradientUnits="userSpaceOnUse" x1="328.8625" y1="98.7944" x2="227.8625" y2="425.7944">
		<stop  offset="0" style="stop-color:#14B1E7"/>
		<stop  offset="1" style="stop-color:#1C75BC"/>
	</linearGradient>
	<path style="fill:url(#SVGID_3_);" d="M445.513,288.356V90.149h-97.6v103.908c-7.318-4.351-15.155-7.586-23.409-9.666v-52.19h-97.6
		v92.266c-12.286-6.73-26.109-10.28-40.223-10.28c-21.837,0-42.509,8.354-58.207,23.525c-14.79,14.294-23.694,33.196-25.308,53.559
		c-27.992,1.568-50.285,24.838-50.285,53.216c0,27.829,21.655,50.91,49,53.117v0.18h4.14c0.053,0.002,0.105,0.003,0.16,0.003
		l283.5-0.003l3.8-0.066v-0.23c36.173-3.185,64-33.259,64-70.007C457.482,313.163,453.096,299.645,445.513,288.356z M355.513,97.749
		h82.4v180.395c-5.555-5.405-11.861-9.836-18.679-13.223c-5.554-2.859-11.549-5.014-17.89-6.312
		c-4.634-0.948-9.398-1.429-14.163-1.429l-0.153,0.003l0.001,0.032c-0.273-0.003-0.543-0.02-0.816-0.02
		c-10.598,0-21.094,2.284-30.7,6.646V97.749z M234.505,139.801h82.4v146.025c-9.622-3.734-19.755-5.624-30.2-5.624
		c-30.349,0-57.852,16.085-72.775,42.263c-7.542-4.852-15.731-8.42-24.425-10.64v-60.684h45V139.801z M389.542,390.12l-1.155,0.064
		H106.684l-0.964-0.01c-24.944-0.248-45.238-20.743-45.238-45.688c0-25.199,20.501-45.7,45.7-45.7l4.236,0.052l0.137-3.697
		c0.726-19.751,8.965-38.205,23.202-51.964c14.272-13.794,33.068-21.391,52.925-21.391c13.974,0,27.638,3.815,39.515,11.032
		l0.708-1.165v11.888h-45v74.354l2.994,0.65c10.197,2.213,19.674,6.426,28.165,12.519l3.605,2.588l2.002-3.961
		c13.058-25.838,39.127-41.89,68.033-41.89c11.299,0,22.194,2.431,32.382,7.225l5.418,2.549V192.278
		c8.329,2.312,16.173,5.929,23.409,10.8v73.445l5.663-3.187c9.932-5.587,21.218-8.541,32.637-8.541
		c10.307,0,20.245,2.332,29.2,6.697c20.658,10.465,34.469,31.971,34.469,55.988C449.882,361.353,423.378,388.867,389.542,390.12z"/>
</g>
</svg>
