<?xml version="1.0" encoding="iso-8859-1"?>
<!-- Generator: Adobe Illustrator 19.1.0, SVG Export Plug-In . SVG Version: 6.00 Build 0)  -->
<!DOCTYPE svg PUBLIC "-//W3C//DTD SVG 1.1//EN" "http://www.w3.org/Graphics/SVG/1.1/DTD/svg11.dtd">
<svg version="1.1" xmlns="http://www.w3.org/2000/svg" xmlns:xlink="http://www.w3.org/1999/xlink" x="0px" y="0px"
	 viewBox="0 0 512 512" style="enable-background:new 0 0 512 512;" xml:space="preserve">
<g id="access">
	<g>
		<linearGradient id="SVGID_1_" gradientUnits="userSpaceOnUse" x1="112.9869" y1="155" x2="112.9869" y2="465.1032">
			<stop  offset="0" style="stop-color:#14B1E7"/>
			<stop  offset="1" style="stop-color:#1C75BC"/>
		</linearGradient>
		<path style="fill:url(#SVGID_1_);" d="M115.212,262.127c-0.334-0.016-0.669-0.023-1.004-0.023c-0.153,0-0.515,0.005-0.838,0.01
			l-0.371,0.007c-0.007,0-0.013,0-0.02,0l-0.018,0c-0.323-0.006-0.976-0.017-1.196-0.017c-0.337,0-0.675,0.007-1.011,0.024
			c-21.216,1.017-38.39,19.149-38.274,40.419c0.091,17.023,10.99,32.197,27.121,37.759l7.736,2.667l2.089-7.912
			c0.212-0.802,0.841-3.749,0.041-7.999c-0.981-5.215-3.646-10.298-7.922-15.108l-0.095-0.107l-0.099-0.103l-0.084-0.088
			c-2.158-2.635-3.344-5.94-3.344-9.332c0-8.148,6.64-14.777,14.802-14.777h0.52c8.162,0,14.803,6.629,14.803,14.777
			c0,3.389-1.183,6.691-3.337,9.323c-9.433,9.464-8.512,20.991-8.376,22.275l1.007,9.497l9.028-3.113
			c16.13-5.562,27.03-20.736,27.122-37.76C153.609,281.276,136.437,263.144,115.212,262.127z M123.894,333.121
			c0,0-0.949-8.949,6.217-16.124c0.138-0.138,0.229-0.232,0.268-0.278c3.397-4.026,5.27-9.139,5.27-14.395
			c0-12.338-10.05-22.377-22.403-22.377h-0.52c-12.353,0-22.402,10.039-22.402,22.377c0,5.256,1.873,10.368,5.273,14.399l0.268,0.28
			c8.071,9.08,6.213,16.117,6.213,16.117c-13.084-4.511-21.925-16.814-21.998-30.616c-0.094-17.254,13.833-31.961,31.047-32.787
			c0.211-0.01,0.425-0.015,0.637-0.015c0.259,0,1.192,0.019,1.22,0.019c-0.005,0,0.963-0.019,1.223-0.019
			c0.213,0,0.425,0.004,0.64,0.015c17.211,0.825,31.139,15.533,31.045,32.787C145.819,316.306,136.978,328.609,123.894,333.121z"/>
		<linearGradient id="SVGID_2_" gradientUnits="userSpaceOnUse" x1="257.6667" y1="155" x2="257.6667" y2="465.1032">
			<stop  offset="0" style="stop-color:#14B1E7"/>
			<stop  offset="1" style="stop-color:#1C75BC"/>
		</linearGradient>
		<path style="fill:url(#SVGID_2_);" d="M447.682,104.399H67.651c-22.378,0-40.584,18.206-40.584,40.584v12.416v7.6v63v7.6v106.416
			c0,22.378,18.206,40.584,40.584,40.584h380.031c22.378,0,40.584-18.206,40.584-40.584V144.984
			C488.267,122.605,470.061,104.399,447.682,104.399z M34.667,164.999H480.37v63H34.667V164.999z M480.667,342.015
			c0,18.217-14.768,32.984-32.984,32.984H67.651c-18.217,0-32.984-14.768-32.984-32.984V235.599H480.37h0.297V342.015z
			 M480.667,157.399h-0.297H34.667v-12.416c0-18.217,14.768-32.984,32.984-32.984h380.031c18.217,0,32.984,14.768,32.984,32.984
			V157.399z"/>
		<linearGradient id="SVGID_3_" gradientUnits="userSpaceOnUse" x1="227.6667" y1="155" x2="227.6667" y2="465.1032">
			<stop  offset="0" style="stop-color:#14B1E7"/>
			<stop  offset="1" style="stop-color:#1C75BC"/>
		</linearGradient>
		<path style="fill:url(#SVGID_3_);" d="M175.667,274.399h-7.6v7.6v12v7.6h7.6h104h7.6v-7.6v-12v-7.6h-7.6H175.667z
			 M279.667,293.999h-104v-12h104V293.999z"/>
		<linearGradient id="SVGID_4_" gradientUnits="userSpaceOnUse" x1="205.1178" y1="155" x2="205.1178" y2="465.1032">
			<stop  offset="0" style="stop-color:#14B1E7"/>
			<stop  offset="1" style="stop-color:#1C75BC"/>
		</linearGradient>
		<path style="fill:url(#SVGID_4_);" d="M175.667,307.399h-7.6v7.6v12v7.6h7.6h58.902h7.6v-7.6v-12v-7.6h-7.6H175.667z
			 M234.569,326.999h-58.902v-12h58.902V326.999z"/>
	</g>
</g>
<g id="Layer_1">
</g>
</svg>
