<?xml version="1.0" encoding="utf-8"?>
<!-- Generator: Adobe Illustrator 19.1.0, SVG Export Plug-In . SVG Version: 6.00 Build 0)  -->
<!DOCTYPE svg PUBLIC "-//W3C//DTD SVG 1.1//EN" "http://www.w3.org/Graphics/SVG/1.1/DTD/svg11.dtd">
<svg version="1.1" id="Layer_1" xmlns="http://www.w3.org/2000/svg" xmlns:xlink="http://www.w3.org/1999/xlink" x="0px" y="0px"
	 viewBox="-72.5 397 145 230" enable-background="new -72.5 397 145 230" xml:space="preserve">
<g id="Product_Council">
	<g>
		
			<linearGradient id="SVGID_1_" gradientUnits="userSpaceOnUse" x1="-1.009118e-05" y1="72.7145" x2="-1.008163e-05" y2="-139.9188" gradientTransform="matrix(1 0 0 -1 0 512)">
			<stop  offset="0" style="stop-color:#14B1E7"/>
			<stop  offset="1" style="stop-color:#1C75BC"/>
		</linearGradient>
		<path fill="url(#SVGID_1_)" d="M72.5,433.96c0-0.12-0.02-0.23-0.04-0.34c-0.01-0.03-0.01-0.06-0.02-0.09
			c-0.02-0.09-0.05-0.19-0.09-0.28c-0.01-0.03-0.02-0.05-0.03-0.08c-0.05-0.11-0.1-0.21-0.17-0.31c-0.01-0.02-0.03-0.04-0.04-0.06
			c-0.06-0.08-0.12-0.15-0.18-0.22c-0.02-0.02-0.04-0.04-0.06-0.06c-0.08-0.08-0.17-0.16-0.27-0.22c-0.01-0.01-0.02-0.01-0.02-0.01
			c-0.07-0.05-0.14-0.09-0.22-0.13L0.95,397.21c-0.57-0.28-1.24-0.28-1.82,0l-70.49,34.95c-0.08,0.04-0.15,0.08-0.22,0.13
			c-0.01,0-0.02,0.01-0.02,0.01c-0.1,0.07-0.19,0.14-0.27,0.22c-0.02,0.02-0.04,0.04-0.06,0.07c-0.07,0.07-0.13,0.14-0.18,0.22
			c-0.01,0.02-0.03,0.04-0.04,0.06c-0.06,0.1-0.12,0.2-0.16,0.3c-0.01,0.03-0.02,0.06-0.03,0.09c-0.03,0.09-0.06,0.18-0.08,0.27
			c-0.01,0.03-0.01,0.06-0.02,0.08c-0.02,0.11-0.03,0.21-0.04,0.32c0,0.01,0,0.03,0,0.04c0,0.01,0,0.01,0,0.02v28.02
			c0,0.02,0,0.03,0,0.05c0,0.11,0.01,0.21,0.03,0.31c0,0.03,0.01,0.06,0.01,0.08c0.03,0.12,0.06,0.23,0.1,0.33
			c0.01,0.02,0.02,0.04,0.03,0.07c0.04,0.09,0.09,0.17,0.14,0.25c0.02,0.03,0.03,0.05,0.05,0.08c0.07,0.1,0.14,0.19,0.22,0.27
			c0.01,0.01,0.01,0.01,0.02,0.02c0.08,0.08,0.16,0.14,0.25,0.21c0.03,0.02,0.06,0.04,0.08,0.06c0.03,0.02,0.05,0.04,0.08,0.05
			l68.52,39.25c0.31,0.18,0.67,0.27,1.02,0.27c0.33,0,0.67-0.08,0.97-0.25l72.39-39.25c0.04-0.02,0.08-0.05,0.12-0.07
			c0.03-0.02,0.05-0.03,0.08-0.05c0.1-0.07,0.19-0.14,0.27-0.22c0.01-0.01,0.02-0.02,0.03-0.03c0.07-0.08,0.14-0.16,0.2-0.24
			c0.02-0.03,0.03-0.05,0.05-0.08c0.06-0.09,0.11-0.19,0.16-0.29c0-0.01,0.01-0.02,0.01-0.03c0.05-0.11,0.08-0.22,0.11-0.34
			c0.01-0.03,0.01-0.06,0.02-0.09c0.02-0.11,0.03-0.21,0.03-0.32c0-0.01,0-0.02,0-0.04V434c0,0,0-0.01,0-0.01
			C72.5,433.98,72.5,433.97,72.5,433.96z M0.04,401.34l65.97,32.74l-22.57,12.24L0.95,425.23c-0.57-0.28-1.24-0.28-1.82,0
			l-43.3,21.47l-21.94-12.57L0.04,401.34z M39.03,448.71l-40.94,22.2l-37.98-21.75l39.92-19.79L39.03,448.71z M-68.41,437.53
			l19.82,11.35l-19.82,9.83V437.53z M-1.91,498.92l-64.2-36.77l21.8-10.81l41.35,23.69c0.31,0.18,0.67,0.27,1.02,0.27
			c0.33,0,0.67-0.08,0.97-0.25l44.48-24.12l22.49,11.16L-1.91,498.92z M68.41,458.71l-20.48-10.17l20.48-11.11V458.71z"/>
		
			<linearGradient id="SVGID_2_" gradientUnits="userSpaceOnUse" x1="-3.460641e-04" y1="72.7145" x2="-3.460546e-04" y2="-139.9194" gradientTransform="matrix(1 0 0 -1 0 512)">
			<stop  offset="0" style="stop-color:#14B1E7"/>
			<stop  offset="1" style="stop-color:#1C75BC"/>
		</linearGradient>
		<path fill="url(#SVGID_2_)" d="M72.46,557.3c-0.01-0.03-0.01-0.06-0.02-0.09c-0.02-0.1-0.05-0.19-0.09-0.28
			c-0.01-0.02-0.02-0.05-0.03-0.07c-0.05-0.11-0.1-0.21-0.17-0.31c-0.01-0.02-0.03-0.04-0.04-0.06c-0.06-0.08-0.12-0.15-0.18-0.22
			c-0.02-0.02-0.04-0.04-0.06-0.06c-0.08-0.08-0.17-0.16-0.27-0.22c-0.01-0.01-0.02-0.01-0.02-0.01c-0.07-0.05-0.14-0.09-0.21-0.13
			L0.95,520.9c-0.57-0.28-1.24-0.28-1.82,0l-70.49,34.95c-0.08,0.04-0.15,0.08-0.22,0.13c-0.01,0-0.02,0.01-0.02,0.01
			c-0.1,0.07-0.19,0.14-0.27,0.22c-0.02,0.02-0.04,0.04-0.06,0.07c-0.07,0.07-0.13,0.14-0.18,0.22c-0.01,0.02-0.03,0.04-0.04,0.06
			c-0.06,0.1-0.12,0.2-0.16,0.3c-0.01,0.03-0.02,0.06-0.03,0.09c-0.03,0.09-0.06,0.18-0.08,0.27c-0.01,0.03-0.01,0.06-0.02,0.08
			c-0.02,0.11-0.03,0.21-0.04,0.32c0,0.01,0,0.03,0,0.04c0,0.01,0,0.01,0,0.02v28.02c0,0.02,0,0.03,0,0.05
			c0,0.11,0.01,0.21,0.03,0.31c0,0.03,0.01,0.06,0.01,0.08c0.03,0.12,0.06,0.23,0.1,0.33c0.01,0.02,0.02,0.04,0.03,0.07
			c0.04,0.09,0.09,0.17,0.14,0.25c0.02,0.03,0.03,0.05,0.05,0.08c0.07,0.1,0.14,0.19,0.22,0.27c0.01,0.01,0.01,0.01,0.02,0.02
			c0.08,0.08,0.16,0.14,0.25,0.21c0.03,0.02,0.06,0.04,0.08,0.06c0.03,0.02,0.05,0.04,0.08,0.05l68.52,39.25
			c0.31,0.18,0.67,0.27,1.02,0.27c0.33,0,0.67-0.08,0.97-0.25l72.39-39.25c0.04-0.02,0.08-0.05,0.12-0.07
			c0.03-0.02,0.05-0.03,0.08-0.05c0.1-0.07,0.19-0.14,0.27-0.22c0.01-0.01,0.02-0.02,0.03-0.03c0.07-0.08,0.14-0.16,0.2-0.24
			c0.02-0.03,0.03-0.05,0.05-0.08c0.06-0.09,0.11-0.19,0.16-0.29c0-0.01,0.01-0.02,0.01-0.03c0.05-0.11,0.08-0.22,0.11-0.34
			c0.01-0.03,0.01-0.06,0.02-0.09c0.02-0.11,0.03-0.21,0.03-0.32c0-0.01,0-0.02,0-0.04v-28.02c0,0,0-0.01,0-0.01
			c0-0.01,0-0.02,0-0.02C72.5,557.53,72.48,557.42,72.46,557.3z M0.04,525.02l65.97,32.74L43.43,570L0.95,548.91
			c-0.57-0.28-1.24-0.28-1.82,0l-43.3,21.46l-21.94-12.57L0.04,525.02z M39.03,572.39l-40.94,22.2l-37.98-21.75l39.92-19.79
			L39.03,572.39z M-68.41,561.22l19.82,11.35l-19.82,9.83V561.22z M-1.91,622.6l-64.2-36.77l21.8-10.81l41.35,23.69
			c0.31,0.18,0.67,0.27,1.02,0.27c0.33,0,0.67-0.08,0.97-0.25l44.48-24.12l22.49,11.16L-1.91,622.6z M68.41,582.39l-20.48-10.17
			l20.48-11.11V582.39z"/>
		
			<linearGradient id="SVGID_3_" gradientUnits="userSpaceOnUse" x1="70.2912" y1="72.7145" x2="70.2912" y2="-139.8506" gradientTransform="matrix(1 0 0 -1 0 512)">
			<stop  offset="0" style="stop-color:#14B1E7"/>
			<stop  offset="1" style="stop-color:#1C75BC"/>
		</linearGradient>
		<rect x="68.93" y="480.46" fill="url(#SVGID_3_)" width="2.73" height="5.47"/>
		
			<linearGradient id="SVGID_4_" gradientUnits="userSpaceOnUse" x1="70.2912" y1="72.7145" x2="70.2912" y2="-139.8506" gradientTransform="matrix(1 0 0 -1 0 512)">
			<stop  offset="0" style="stop-color:#14B1E7"/>
			<stop  offset="1" style="stop-color:#1C75BC"/>
		</linearGradient>
		<rect x="68.93" y="517.36" fill="url(#SVGID_4_)" width="2.73" height="5.47"/>
		
			<linearGradient id="SVGID_5_" gradientUnits="userSpaceOnUse" x1="70.2912" y1="72.7145" x2="70.2912" y2="-139.8506" gradientTransform="matrix(1 0 0 -1 0 512)">
			<stop  offset="0" style="stop-color:#14B1E7"/>
			<stop  offset="1" style="stop-color:#1C75BC"/>
		</linearGradient>
		<rect x="68.93" y="505.06" fill="url(#SVGID_5_)" width="2.73" height="5.47"/>
		
			<linearGradient id="SVGID_6_" gradientUnits="userSpaceOnUse" x1="70.2912" y1="72.7145" x2="70.2912" y2="-139.8506" gradientTransform="matrix(1 0 0 -1 0 512)">
			<stop  offset="0" style="stop-color:#14B1E7"/>
			<stop  offset="1" style="stop-color:#1C75BC"/>
		</linearGradient>
		<rect x="68.93" y="468.16" fill="url(#SVGID_6_)" width="2.73" height="5.47"/>
		
			<linearGradient id="SVGID_7_" gradientUnits="userSpaceOnUse" x1="70.2912" y1="72.7145" x2="70.2912" y2="-139.8506" gradientTransform="matrix(1 0 0 -1 0 512)">
			<stop  offset="0" style="stop-color:#14B1E7"/>
			<stop  offset="1" style="stop-color:#1C75BC"/>
		</linearGradient>
		<rect x="68.93" y="492.76" fill="url(#SVGID_7_)" width="2.73" height="5.47"/>
		
			<linearGradient id="SVGID_8_" gradientUnits="userSpaceOnUse" x1="70.2912" y1="72.7145" x2="70.2912" y2="-139.8506" gradientTransform="matrix(1 0 0 -1 0 512)">
			<stop  offset="0" style="stop-color:#14B1E7"/>
			<stop  offset="1" style="stop-color:#1C75BC"/>
		</linearGradient>
		<rect x="68.93" y="529.66" fill="url(#SVGID_8_)" width="2.73" height="5.47"/>
		
			<linearGradient id="SVGID_9_" gradientUnits="userSpaceOnUse" x1="70.2912" y1="72.7145" x2="70.2912" y2="-139.8506" gradientTransform="matrix(1 0 0 -1 0 512)">
			<stop  offset="0" style="stop-color:#14B1E7"/>
			<stop  offset="1" style="stop-color:#1C75BC"/>
		</linearGradient>
		<rect x="68.93" y="541.96" fill="url(#SVGID_9_)" width="2.73" height="5.47"/>
		
			<linearGradient id="SVGID_10_" gradientUnits="userSpaceOnUse" x1="-70.9736" y1="72.7145" x2="-70.9736" y2="-139.8506" gradientTransform="matrix(1 0 0 -1 0 512)">
			<stop  offset="0" style="stop-color:#14B1E7"/>
			<stop  offset="1" style="stop-color:#1C75BC"/>
		</linearGradient>
		<rect x="-72.34" y="479.1" fill="url(#SVGID_10_)" width="2.73" height="5.47"/>
		
			<linearGradient id="SVGID_11_" gradientUnits="userSpaceOnUse" x1="-70.9736" y1="72.7145" x2="-70.9736" y2="-139.8506" gradientTransform="matrix(1 0 0 -1 0 512)">
			<stop  offset="0" style="stop-color:#14B1E7"/>
			<stop  offset="1" style="stop-color:#1C75BC"/>
		</linearGradient>
		<rect x="-72.34" y="500.96" fill="url(#SVGID_11_)" width="2.73" height="5.47"/>
		
			<linearGradient id="SVGID_12_" gradientUnits="userSpaceOnUse" x1="-70.9736" y1="72.7145" x2="-70.9736" y2="-139.8506" gradientTransform="matrix(1 0 0 -1 0 512)">
			<stop  offset="0" style="stop-color:#14B1E7"/>
			<stop  offset="1" style="stop-color:#1C75BC"/>
		</linearGradient>
		<rect x="-72.34" y="511.9" fill="url(#SVGID_12_)" width="2.73" height="5.47"/>
		
			<linearGradient id="SVGID_13_" gradientUnits="userSpaceOnUse" x1="-70.9736" y1="72.7145" x2="-70.9736" y2="-139.8506" gradientTransform="matrix(1 0 0 -1 0 512)">
			<stop  offset="0" style="stop-color:#14B1E7"/>
			<stop  offset="1" style="stop-color:#1C75BC"/>
		</linearGradient>
		<rect x="-72.34" y="522.83" fill="url(#SVGID_13_)" width="2.73" height="5.47"/>
		
			<linearGradient id="SVGID_14_" gradientUnits="userSpaceOnUse" x1="-70.9736" y1="72.7145" x2="-70.9736" y2="-139.8506" gradientTransform="matrix(1 0 0 -1 0 512)">
			<stop  offset="0" style="stop-color:#14B1E7"/>
			<stop  offset="1" style="stop-color:#1C75BC"/>
		</linearGradient>
		<rect x="-72.34" y="533.76" fill="url(#SVGID_14_)" width="2.73" height="5.47"/>
		
			<linearGradient id="SVGID_15_" gradientUnits="userSpaceOnUse" x1="-70.9736" y1="72.7145" x2="-70.9736" y2="-139.8506" gradientTransform="matrix(1 0 0 -1 0 512)">
			<stop  offset="0" style="stop-color:#14B1E7"/>
			<stop  offset="1" style="stop-color:#1C75BC"/>
		</linearGradient>
		<rect x="-72.34" y="544.7" fill="url(#SVGID_15_)" width="2.73" height="5.47"/>
		
			<linearGradient id="SVGID_16_" gradientUnits="userSpaceOnUse" x1="-70.9736" y1="72.7145" x2="-70.9736" y2="-139.8506" gradientTransform="matrix(1 0 0 -1 0 512)">
			<stop  offset="0" style="stop-color:#14B1E7"/>
			<stop  offset="1" style="stop-color:#1C75BC"/>
		</linearGradient>
		<rect x="-72.34" y="490.03" fill="url(#SVGID_16_)" width="2.73" height="5.47"/>
		
			<linearGradient id="SVGID_17_" gradientUnits="userSpaceOnUse" x1="-70.9736" y1="72.7145" x2="-70.9736" y2="-139.8506" gradientTransform="matrix(1 0 0 -1 0 512)">
			<stop  offset="0" style="stop-color:#14B1E7"/>
			<stop  offset="1" style="stop-color:#1C75BC"/>
		</linearGradient>
		<rect x="-72.34" y="468.16" fill="url(#SVGID_17_)" width="2.73" height="5.47"/>
	</g>
</g>
<g id="Layer_1_1_">
</g>
</svg>
