<?xml version="1.0" encoding="iso-8859-1"?>
<!-- Generator: Adobe Illustrator 19.1.0, SVG Export Plug-In . SVG Version: 6.00 Build 0)  -->
<!DOCTYPE svg PUBLIC "-//W3C//DTD SVG 1.1//EN" "http://www.w3.org/Graphics/SVG/1.1/DTD/svg11.dtd">
<svg version="1.1" xmlns="http://www.w3.org/2000/svg" xmlns:xlink="http://www.w3.org/1999/xlink" x="0px" y="0px"
	 viewBox="0 0 512 512" style="enable-background:new 0 0 512 512;" xml:space="preserve">
<g id="operators">
	<g>
		<linearGradient id="SVGID_1_" gradientUnits="userSpaceOnUse" x1="158.7518" y1="71" x2="158.7518" y2="361">
			<stop  offset="0" style="stop-color:#14B1E7"/>
			<stop  offset="1" style="stop-color:#1C75BC"/>
		</linearGradient>
		<path style="fill:url(#SVGID_1_);" d="M170.405,338.391c-1.797-1.947-3.563-3.983-5.247-6.051l-18.059,14.713
			c1.988,2.439,4.072,4.842,6.196,7.14L170.405,338.391z"/>
		<linearGradient id="SVGID_2_" gradientUnits="userSpaceOnUse" x1="138.4459" y1="71" x2="138.4459" y2="361">
			<stop  offset="0" style="stop-color:#14B1E7"/>
			<stop  offset="1" style="stop-color:#1C75BC"/>
		</linearGradient>
		<path style="fill:url(#SVGID_2_);" d="M150.833,193.657l-20.68-10.717c-1.451,2.8-2.828,5.678-4.094,8.554l21.319,9.382
			C148.445,198.45,149.608,196.021,150.833,193.657z"/>
		<linearGradient id="SVGID_3_" gradientUnits="userSpaceOnUse" x1="269.0962" y1="71" x2="269.0962" y2="361">
			<stop  offset="0" style="stop-color:#14B1E7"/>
			<stop  offset="1" style="stop-color:#1C75BC"/>
		</linearGradient>
		<path style="fill:url(#SVGID_3_);" d="M272.316,125.252l1.563-23.24c-3.14-0.212-6.317-0.329-9.452-0.343l-0.115,23.292
			l1.061,0.01C267.675,125.002,270.011,125.097,272.316,125.252z"/>
		<linearGradient id="SVGID_4_" gradientUnits="userSpaceOnUse" x1="126.2366" y1="71" x2="126.2366" y2="361">
			<stop  offset="0" style="stop-color:#14B1E7"/>
			<stop  offset="1" style="stop-color:#1C75BC"/>
		</linearGradient>
		<path style="fill:url(#SVGID_4_);" d="M115.377,276.915l22.977-3.824c-0.436-2.616-0.793-5.282-1.062-7.923l-23.173,2.365
			C114.439,270.66,114.861,273.817,115.377,276.915z"/>
		<linearGradient id="SVGID_5_" gradientUnits="userSpaceOnUse" x1="191.6142" y1="71" x2="191.6142" y2="361">
			<stop  offset="0" style="stop-color:#14B1E7"/>
			<stop  offset="1" style="stop-color:#1C75BC"/>
		</linearGradient>
		<path style="fill:url(#SVGID_5_);" d="M181.846,125.934l12.697,19.527c2.232-1.451,4.532-2.846,6.838-4.148l-11.45-20.284
			C187.204,122.569,184.484,124.219,181.846,125.934z"/>
		<linearGradient id="SVGID_6_" gradientUnits="userSpaceOnUse" x1="371.303" y1="71" x2="371.303" y2="361">
			<stop  offset="0" style="stop-color:#14B1E7"/>
			<stop  offset="1" style="stop-color:#1C75BC"/>
		</linearGradient>
		<path style="fill:url(#SVGID_6_);" d="M359.534,335.756l17.534,15.333c2.072-2.369,4.092-4.829,6.004-7.311l-18.455-14.213
			C363,331.666,361.289,333.749,359.534,335.756z"/>
		<linearGradient id="SVGID_7_" gradientUnits="userSpaceOnUse" x1="401.7527" y1="71" x2="401.7527" y2="361">
			<stop  offset="0" style="stop-color:#14B1E7"/>
			<stop  offset="1" style="stop-color:#1C75BC"/>
		</linearGradient>
		<path style="fill:url(#SVGID_7_);" d="M412.791,272.765c0.428-3.102,0.764-6.264,0.999-9.398l-23.227-1.744
			c-0.199,2.655-0.485,5.334-0.846,7.964L412.791,272.765z"/>
		<linearGradient id="SVGID_8_" gradientUnits="userSpaceOnUse" x1="393.0402" y1="71" x2="393.0402" y2="361">
			<stop  offset="0" style="stop-color:#14B1E7"/>
			<stop  offset="1" style="stop-color:#1C75BC"/>
		</linearGradient>
		<path style="fill:url(#SVGID_8_);" d="M380.611,201.885c1.051,2.438,2.035,4.936,2.926,7.427l21.932-7.844
			c-1.057-2.953-2.223-5.914-3.467-8.802L380.611,201.885z"/>
		<linearGradient id="SVGID_9_" gradientUnits="userSpaceOnUse" x1="344.2339" y1="71" x2="344.2339" y2="361">
			<stop  offset="0" style="stop-color:#14B1E7"/>
			<stop  offset="1" style="stop-color:#1C75BC"/>
		</linearGradient>
		<path style="fill:url(#SVGID_9_);" d="M346.805,126.628l-12.867,19.416c2.208,1.464,4.406,3.022,6.529,4.63l14.064-18.567
			C352.019,130.205,349.42,128.361,346.805,126.628z"/>
		<linearGradient id="SVGID_10_" gradientUnits="userSpaceOnUse" x1="264.4538" y1="71" x2="264.4538" y2="361">
			<stop  offset="0" style="stop-color:#14B1E7"/>
			<stop  offset="1" style="stop-color:#1C75BC"/>
		</linearGradient>
		<path style="fill:url(#SVGID_10_);" d="M264.454,47.685c-112.927,0-204.8,91.873-204.8,204.8c0,55.222,21.659,107,60.988,145.797
			l2.745,2.708l34.356-35.857l-2.646-2.631c-29.563-29.387-45.844-68.458-45.844-110.017c0-85.577,69.623-155.2,155.2-155.2
			s155.2,69.623,155.2,155.2c0,41.559-16.281,80.63-45.845,110.017l-2.646,2.631l34.356,35.857l2.745-2.708
			c39.329-38.798,60.989-90.576,60.989-145.797C469.254,139.557,377.381,47.685,264.454,47.685z M405.646,390.137l-23.862-24.905
			c29.352-30.503,45.47-70.393,45.47-112.747c0-89.769-73.031-162.8-162.8-162.8s-162.8,73.031-162.8,162.8
			c0,42.354,16.117,82.245,45.469,112.747l-23.862,24.905c-36.146-37.038-56.007-85.769-56.007-137.652
			c0-108.736,88.464-197.2,197.2-197.2s197.2,88.464,197.2,197.2C461.654,304.367,441.793,353.098,405.646,390.137z"/>
		<linearGradient id="SVGID_11_" gradientUnits="userSpaceOnUse" x1="298.1671" y1="71" x2="298.1671" y2="361">
			<stop  offset="0" style="stop-color:#14B1E7"/>
			<stop  offset="1" style="stop-color:#1C75BC"/>
		</linearGradient>
		<path style="fill:url(#SVGID_11_);" d="M291.159,266.777c1.608-3.602,2.509-7.585,2.509-11.777c0-15.99-13.01-29-29-29
			s-29,13.01-29,29s13.01,29,29,29c4.182,0,8.156-0.897,11.75-2.497L360.667,355L291.159,266.777z M264.668,280
			c-13.785,0-25-11.215-25-25s11.215-25,25-25c13.785,0,25,11.215,25,25c0,2.852-0.487,5.591-1.37,8.146l-13.08-16.601
			c-4.65-5.738-13.163-6.396-18.639-1.442c-5.782,5.231-5.623,14.36,0.337,19.387l16.122,14.064
			C270.419,279.487,267.602,280,264.668,280z"/>
	</g>
</g>
<g id="Layer_1">
</g>
</svg>
