<svg xmlns="http://www.w3.org/2000/svg" viewBox="0 0 512 512"><linearGradient id="a" gradientUnits="userSpaceOnUse" x1="256.278" y1="89" x2="256.278" y2="542.398"><stop offset="0" stop-color="#14B1E7"/><stop offset="1" stop-color="#1C75BC"/></linearGradient><path d="M256.278 101.01c-85.42 0-154.912 69.493-154.912 154.912 0 66.834 42.574 125.906 105.94 146.995l.508.13c5.547 1.03 8.986-.647 10.894-2.234 2.493-2.074 3.923-5.27 3.923-8.77 0-1.655-.028-5.058-.066-9.476-.045-5.21-.103-11.84-.138-18.68l-.024-4.69-4.583.998c-37.926 8.25-46.17-14.362-46.494-15.305l-.073-.204c-6.71-17.046-16.385-22.93-18.356-23.984-1.188-.82-2.036-1.493-2.64-2.024.518-.06 1.065-.096 1.566-.097 12.783.973 19.92 13.492 20.03 13.69 6.39 10.954 15.642 17.27 26.752 18.26 8.82.785 16.86-1.82 22.058-4.146l1.922-.86.29-2.085c1.457-10.492 5.843-15.698 8.328-17.868l6.488-5.664-8.557-.974c-20.32-2.312-34.616-7.457-44.994-16.19-13.784-11.602-20.485-29.498-20.485-54.714 0-14.625 4.904-27.41 14.577-37.998l1.627-1.78-.92-2.23c-1.52-3.69-5.808-16.82.704-35.07 4.128-.118 15.9 1.096 36.68 15.165l1.456.985 1.693-.47c11.443-3.18 24.177-4.89 36.788-4.948 12.648.058 25.394 1.77 36.858 4.948l1.693.47 1.455-.986c20.83-14.12 32.617-15.297 36.625-15.177 6.536 18.254 2.248 31.392.727 35.082l-.92 2.233 1.63 1.78c9.658 10.548 14.556 23.33 14.556 37.995 0 25.27-6.713 43.17-20.52 54.73-10.38 8.685-24.71 13.787-45.1 16.055l-8.643.96 6.575 5.69c2.687 2.324 8.936 9.424 8.936 25.108 0 13.502-.077 25.256-.128 33.034-.026 3.88-.045 6.78-.045 8.436 0 3.547 1.437 6.766 3.942 8.833 1.484 1.225 3.898 2.496 7.52 2.496 1.044 0 2.187-.105 3.437-.348l.48-.126c63.312-21.105 105.852-80.17 105.852-146.975 0-85.42-69.493-154.913-154.912-154.913zm46.904 294.594c-1.455.257-3.326.333-4.446-.593-.738-.607-1.18-1.718-1.18-2.97 0-1.645.02-4.53.046-8.385.052-7.788.13-19.557.13-33.084 0-9.892-2.35-18.667-6.598-25.126 29.917-4.568 65.348-19.067 65.348-77.416 0-15.824-5.044-29.732-15-41.378 2.148-6.464 5.282-21.38-2.3-40.57l-.662-1.673-1.714-.55c-1.453-.466-14.828-3.93-43.352 14.99-11.785-3.104-24.277-4.707-37.194-4.766-12.882.06-25.364 1.662-37.13 4.767-28.55-18.92-41.942-15.455-43.4-14.99l-1.715.55-.66 1.676c-7.567 19.192-4.43 34.108-2.28 40.57-9.97 11.68-15.02 25.59-15.02 41.375 0 27.213 7.803 47.577 23.19 60.528 10.307 8.674 23.785 14.14 42.057 16.99-2.66 4.072-4.582 9.077-5.61 14.693-21.35 8.607-32.48-3.587-37.23-11.72-.366-.667-9.185-16.334-26.225-17.53l-.217-.01c-2.656-.015-9.012.38-10.465 4.972-1.43 4.518 3.116 8.332 7.236 11.15l.533.304c.085.04 8.683 4.43 14.83 19.994.392 1.105 3.145 8.193 10.973 14.06 11.954 8.958 27.47 9.06 39.726 7.036.034 5.19.076 10.09.11 14.135.04 4.39.068 7.767.068 9.41 0 1.218-.442 2.312-1.185 2.93-1.125.937-2.968.885-4.405.647-60.11-20.13-100.476-76.233-100.476-139.696 0-81.228 66.084-147.31 147.312-147.31S403.59 174.692 403.59 255.92c0 63.438-40.342 119.54-100.408 139.682z" fill="url(#a)"/><linearGradient id="b" gradientUnits="userSpaceOnUse" x1="256.278" y1="89" x2="256.278" y2="542.398"><stop offset="0" stop-color="#14B1E7"/><stop offset="1" stop-color="#1C75BC"/></linearGradient><path d="M256.278 76.14c-97.074 0-176.05 78.977-176.05 176.05s78.976 176.05 176.05 176.05 176.05-78.975 176.05-176.05-78.976-176.05-176.05-176.05zm0 344.5c-92.884 0-168.45-75.565-168.45-168.45s75.566-168.45 168.45-168.45 168.45 75.567 168.45 168.45-75.566 168.45-168.45 168.45z" fill="url(#b)"/></svg>