<svg xmlns="http://www.w3.org/2000/svg" viewBox="0 0 512 512"><linearGradient id="a" gradientUnits="userSpaceOnUse" x1="293.657" y1="72" x2="293.657" y2="521.04"><stop offset="0" stop-color="#14B1E7"/><stop offset="1" stop-color="#1C75BC"/></linearGradient><path d="M177.638 224.43l109.715 50.086c2.003.914 4.153 1.37 6.304 1.37 2.15 0 4.302-.456 6.306-1.37l109.714-50.086c4.975-2.27 8.064-6.903 8.064-12.09 0-5.185-3.09-9.816-8.065-12.087l-9.388-4.284-106.63 48.673-106.63-48.674-9.387 4.283c-4.976 2.27-8.065 6.902-8.066 12.088 0 5.186 3.09 9.82 8.064 12.09zm3.16-17.255l6.23-2.843 106.63 48.674 106.63-48.674 6.228 2.843c2.264 1.033 3.615 2.965 3.615 5.166 0 2.203-1.35 4.135-3.614 5.168l-109.713 50.086c-1.97.897-4.322.897-6.29 0l-109.715-50.086c-2.264-1.033-3.615-2.965-3.615-5.167 0-2.2 1.352-4.132 3.616-5.165z" fill="url(#a)"/><linearGradient id="b" gradientUnits="userSpaceOnUse" x1="293.657" y1="72" x2="293.657" y2="521.04"><stop offset="0" stop-color="#14B1E7"/><stop offset="1" stop-color="#1C75BC"/></linearGradient><path d="M177.778 163.623l109.54 50.005c2.014.92 4.177 1.38 6.34 1.38 2.162 0 4.325-.46 6.34-1.38l109.54-50.005c5-2.284 8.108-6.94 8.107-12.154 0-5.214-3.107-9.87-8.108-12.153L299.997 89.31c-4.028-1.838-8.65-1.837-12.68 0l-109.54 50.006c-5 2.283-8.107 6.94-8.107 12.152s3.106 9.87 8.108 12.155zm3.16-17.385l109.54-50.005c.994-.455 2.087-.682 3.18-.682 1.092 0 2.185.23 3.18.683l109.54 50.005c2.29 1.046 3.66 3 3.66 5.23 0 2.23-1.37 4.187-3.66 5.232l-109.54 50.005c-1.99.91-4.37.91-6.36 0L180.938 156.7c-2.29-1.046-3.66-3.002-3.66-5.232 0-2.23 1.368-4.184 3.66-5.23z" fill="url(#b)"/><linearGradient id="c" gradientUnits="userSpaceOnUse" x1="293.657" y1="72" x2="293.657" y2="521.04"><stop offset="0" stop-color="#14B1E7"/><stop offset="1" stop-color="#1C75BC"/></linearGradient><path d="M401.866 257.56l-1.58-.72-106.628 48.674-106.63-48.674-1.58.72c-6.463 2.95-10.478 8.948-10.478 15.653 0 6.704 4.014 12.702 10.477 15.652l99.955 45.63c2.585 1.18 5.42 1.77 8.257 1.77 2.834 0 5.67-.59 8.255-1.77l99.955-45.63c6.463-2.95 10.477-8.948 10.477-15.652-.002-6.705-4.017-12.703-10.48-15.652zm-3.157 24.383l-99.956 45.63c-3.193 1.457-7.003 1.456-10.192 0l-99.955-45.63c-3.774-1.723-6.028-4.986-6.028-8.73 0-3.237 1.685-6.115 4.582-7.95l106.497 48.614 106.495-48.613c2.897 1.834 4.582 4.712 4.583 7.95 0 3.743-2.255 7.007-6.03 8.73z" fill="url(#c)"/><linearGradient id="d" gradientUnits="userSpaceOnUse" x1="275.604" y1="72" x2="275.604" y2="521.04"><stop offset="0" stop-color="#14B1E7"/><stop offset="1" stop-color="#1C75BC"/></linearGradient><path d="M482.974 394.244l-51.764-42.086v28.845H123.092V97.673h29.313L110.32 45.91 68.232 97.674h28.862v300.04l2.872 4.367 4.062 4.287h327.18v29.963l51.764-42.086zM107.3 398.758l-1.347-1.42-1.25-1.9V90.064H84.226L110.32 57.97l26.093 32.095h-20.93v298.547H438.82V368.15l32.094 26.094-32.094 26.094v-21.58H107.3z" fill="url(#d)"/><linearGradient id="e" gradientUnits="userSpaceOnUse" x1="267.026" y1="72" x2="267.026" y2="521.04"><stop offset="0" stop-color="#14B1E7"/><stop offset="1" stop-color="#1C75BC"/></linearGradient><path fill="url(#e)" d="M365.94 442.508H168.11v-9.51h-7.608v26.63h7.61v-9.51h197.83v9.51h7.608V433h-7.61"/><linearGradient id="f" gradientUnits="userSpaceOnUse" x1="45.419" y1="72" x2="45.419" y2="521.04"><stop offset="0" stop-color="#14B1E7"/><stop offset="1" stop-color="#1C75BC"/></linearGradient><path fill="url(#f)" d="M32.103 154.323h9.51v197.83h-9.51v7.61h26.63v-7.61h-9.51v-197.83h9.51v-7.61h-26.63"/></svg>