<?xml version="1.0" encoding="iso-8859-1"?>
<!-- Generator: Adobe Illustrator 19.1.0, SVG Export Plug-In . SVG Version: 6.00 Build 0)  -->
<!DOCTYPE svg PUBLIC "-//W3C//DTD SVG 1.1//EN" "http://www.w3.org/Graphics/SVG/1.1/DTD/svg11.dtd">
<svg version="1.1" xmlns="http://www.w3.org/2000/svg" xmlns:xlink="http://www.w3.org/1999/xlink" x="0px" y="0px"
	 viewBox="0 0 512 512" style="enable-background:new 0 0 512 512;" xml:space="preserve">
<g id="community-projects">
	<linearGradient id="SVGID_1_" gradientUnits="userSpaceOnUse" x1="256.3736" y1="159" x2="256.3736" y2="450.0429">
		<stop  offset="0" style="stop-color:#14B1E7"/>
		<stop  offset="1" style="stop-color:#1C75BC"/>
	</linearGradient>
	<path style="fill:url(#SVGID_1_);" d="M420.284,260.836c-0.538,0-1.071,0.023-1.601,0.056l-21.745-95.271
		c7.06-3.501,11.925-10.761,11.925-19.175c0-11.827-9.588-21.415-21.415-21.415c-6.984,0-13.168,3.358-17.077,8.531l-93.464-45.009
		c0.151-1.027,0.255-2.07,0.255-3.139c0-11.827-9.588-21.415-21.415-21.415c-11.827,0-21.415,9.588-21.415,21.415
		c0,0.958,0.085,1.894,0.207,2.819l-92.918,44.747c-4.613-5.815-11.733-9.555-19.715-9.555c-13.874,0-25.161,11.288-25.161,25.163
		c0,10.517,6.488,19.542,15.67,23.297l-22.073,96.706c-0.539-0.041-1.079-0.082-1.629-0.082c-11.827,0-21.415,9.588-21.415,21.414
		c0,11.827,9.588,21.415,21.415,21.415c3.595,0,6.977-0.896,9.952-2.461l64.23,80.542c-3.85,4.421-6.19,10.191-6.19,16.501
		c0,13.874,11.287,25.161,25.161,25.161c12.366,0,22.669-8.968,24.765-20.74h102.41c2.547,8.98,10.789,15.566,20.585,15.566
		c11.827,0,21.415-9.588,21.415-21.415c0-5.007-1.732-9.602-4.611-13.249l65.114-81.65c2.723,1.012,5.667,1.567,8.738,1.567
		c13.875,0,25.162-11.287,25.162-25.162C445.446,272.123,434.159,260.836,420.284,260.836z M411.358,262.477
		c-7.527,2.866-13.335,9.243-15.408,17.123l-115.044-25.235c-0.043-4.906-1.499-9.479-3.978-13.336l97.558-77.566
		c3.601,2.748,8.084,4.398,12.964,4.398c0.772,0,1.534-0.045,2.285-0.125L411.358,262.477z M273.417,254.59
		c0,9.741-7.926,17.667-17.668,17.667c-9.741,0-17.667-7.926-17.667-17.667c0-9.742,7.926-17.668,17.667-17.668
		C265.491,236.922,273.417,244.848,273.417,254.59z M274.518,95.722l92.437,44.515c-0.595,1.966-0.922,4.049-0.922,6.209
		c0,4.232,1.244,8.165,3.362,11.487l-97.415,77.452c-3.349-2.835-7.445-4.809-11.949-5.585V106.399
		C266.28,105.13,271.536,101.14,274.518,95.722z M236.835,95.448c3.118,5.865,8.884,10.087,15.702,11.115V229.64
		c-4.637,0.594-8.881,2.452-12.377,5.22l-96.175-74.214c1.965-3.583,3.084-7.692,3.084-12.058c0-3.205-0.609-6.268-1.706-9.09
		L236.835,95.448z M104.241,148.588c0-9.742,7.926-17.667,17.667-17.667c9.742,0,17.668,7.926,17.668,17.667
		c0,9.741-7.926,17.667-17.668,17.667C112.167,166.255,104.241,158.329,104.241,148.588z M97.606,270.459l22.097-96.812
		c0.727,0.063,1.462,0.102,2.205,0.102c6.814,0,13.001-2.727,17.536-7.141l95.571,73.748c-2.79,4.051-4.428,8.954-4.428,14.234
		c0,0.119,0.007,0.236,0.009,0.354l-122.645,25.616C105.78,276.106,102.12,272.524,97.606,270.459z M104.581,304.27
		c3.438-3.799,5.549-8.82,5.549-14.347c0-0.723-0.038-1.436-0.108-2.14l121.794-25.438c1.748,5.382,5.26,9.976,9.856,13.09
		l-53.115,106.231c-2.131-0.588-4.372-0.909-6.688-0.909c-4.866,0-9.412,1.393-13.266,3.795L104.581,304.27z M181.869,423.586
		c-9.741,0-17.667-7.926-17.667-17.667c0-9.742,7.926-17.668,17.667-17.668c9.742,0,17.668,7.926,17.668,17.668
		C199.537,415.66,191.611,423.586,181.869,423.586z M308.298,402.845H206.836c-0.931-7.604-5.264-14.167-11.43-18.12l53.031-106.061
		c2.315,0.705,4.77,1.087,7.312,1.087c3.043,0,5.962-0.543,8.664-1.538l52.034,109.425
		C311.849,391.24,308.769,396.672,308.298,402.845z M340.82,386.259c-3.26-2.005-7.083-3.182-11.191-3.182
		c-2.29,0-4.491,0.368-6.56,1.033l-52.079-109.518c4.17-3.185,7.317-7.641,8.86-12.785l115.3,25.291
		c0.331,7.639,4.083,14.401,9.759,18.797L340.82,386.259z M420.284,303.665c-9.741,0-17.667-7.926-17.667-17.668
		c0-9.741,7.926-17.667,17.667-17.667c9.742,0,17.668,7.926,17.668,17.667C437.952,295.739,430.026,303.665,420.284,303.665z"/>
</g>
<g id="Layer_1">
</g>
</svg>
